<?xml version="1.0" encoding="UTF-8"?>
<svg xmlns="http://www.w3.org/2000/svg" viewBox="0 0 3368.000000 2288.000000" fill="none" role="img">
<title>NAHU Capital</title>
<g fill="#101722" transform="translate(0.000000,2288.000000) scale(0.100000,-0.100000)">
<path d="M12240 8900 c0 -13 -7 -20 -20 -20 l-20 0 0 -40 0 -40 -20 0 -20 0 0
-40 0 -40 -20 0 -20 0 0 -40 0 -40 -20 0 -20 0 0 -40 0 -40 -20 0 c-13 0 -20
-7 -20 -20 0 -13 -7 -20 -20 -20 l-20 0 0 -40 0 -40 -20 0 -20 0 0 -40 0 -40
-20 0 -20 0 0 -40 0 -40 -20 0 -20 0 0 -40 0 -40 -20 0 -20 0 0 -40 0 -40 -20
0 -20 0 0 -40 0 -40 -20 0 c-13 0 -20 -7 -20 -20 0 -13 -7 -20 -20 -20 l-20 0
0 -40 0 -40 -20 0 -20 0 0 -40 0 -40 -20 0 -20 0 0 -40 0 -40 -20 0 -20 0 0
-40 0 -40 -20 0 -20 0 0 -40 0 -40 -20 0 -20 0 0 -40 0 -40 -20 0 c-13 0 -20
-7 -20 -20 0 -13 -7 -20 -20 -20 l-20 0 0 -40 0 -40 -20 0 -20 0 0 -40 0 -40
-20 0 -20 0 0 -40 0 -40 -20 0 -20 0 0 -40 0 -40 -20 0 c-13 0 -20 -7 -20 -20
0 -13 -7 -20 -20 -20 l-20 0 0 -40 0 -40 -20 0 -20 0 0 -40 0 -40 -20 0 -20 0
0 -40 0 -40 -20 0 c-13 0 -20 -7 -20 -20 0 -13 -7 -20 -20 -20 l-20 0 0 -40 0
-40 -20 0 -20 0 0 -40 0 -40 -20 0 -20 0 0 -40 0 -40 -20 0 -20 0 0 -40 0 -40
-20 0 -20 0 0 -40 0 -40 -20 0 c-13 0 -20 -7 -20 -20 0 -13 -7 -20 -20 -20
l-20 0 0 -40 0 -40 -20 0 -20 0 0 -40 0 -40 -20 0 -20 0 0 -40 0 -40 -20 0
-20 0 0 -40 0 -40 -20 0 -20 0 0 -40 0 -40 -20 0 c-13 0 -20 -7 -20 -20 0 -13
-7 -20 -20 -20 l-20 0 0 -40 0 -40 -20 0 -20 0 0 -40 0 -40 -20 0 -20 0 0 -40
0 -40 -20 0 -20 0 0 -40 0 -40 -20 0 -20 0 0 -40 0 -40 -20 0 c-13 0 -20 -7
-20 -20 0 -13 -7 -20 -20 -20 l-20 0 0 -40 0 -40 -20 0 -20 0 0 -40 0 -40 -20
0 -20 0 0 -40 0 -40 -20 0 c-13 0 -20 -7 -20 -20 0 -13 -7 -20 -20 -20 l-20 0
0 -40 0 -40 -20 0 -20 0 0 -40 0 -40 -20 0 -20 0 0 -40 0 -40 -20 0 -20 0 0
-40 0 -40 -20 0 -20 0 0 -40 0 -40 -20 0 c-13 0 -20 -7 -20 -20 0 -13 -7 -20
-20 -20 l-20 0 0 -40 0 -40 -20 0 -20 0 0 -40 0 -40 -20 0 -20 0 0 -40 0 -40
-20 0 -20 0 0 -40 0 -40 -20 0 -20 0 0 -40 0 -40 -20 0 -20 0 0 -40 0 -40 -20
0 c-13 0 -20 -7 -20 -20 0 -13 -7 -20 -20 -20 l-20 0 0 -40 0 -40 -20 0 -20 0
0 -40 0 -40 -20 0 c-13 0 -20 -7 -20 -20 0 -13 -7 -20 -20 -20 -13 0 -20 -7
-20 -20 0 -13 -7 -20 -20 -20 l-20 0 0 -40 0 -40 -20 0 c-13 0 -20 -7 -20 -20
0 -13 -7 -20 -20 -20 -13 0 -20 -7 -20 -20 0 -13 -7 -20 -20 -20 l-20 0 0 -40
0 -40 -20 0 c-13 0 -20 -7 -20 -20 0 -13 -7 -20 -20 -20 -13 0 -20 -7 -20 -20
0 -13 -7 -20 -20 -20 -13 0 -20 -7 -20 -20 0 -13 -7 -20 -20 -20 -13 0 -20 -7
-20 -20 l0 -20 -40 0 -40 0 0 -20 0 -20 -40 0 -40 0 0 -20 0 -20 -80 0 -80 0
0 -20 0 -20 -100 0 -100 0 0 -60 0 -60 880 0 880 0 0 60 0 60 -120 0 -120 0 0
20 0 20 -60 0 -60 0 0 20 0 20 -40 0 -40 0 0 20 c0 13 -7 20 -20 20 -13 0 -20
7 -20 20 0 13 -7 20 -20 20 -13 0 -20 7 -20 20 0 13 -7 20 -20 20 l-20 0 0
140 0 140 20 0 20 0 0 60 0 60 20 0 c13 0 20 7 20 20 0 13 7 20 20 20 l20 0 0
40 0 40 20 0 20 0 0 40 0 40 20 0 c13 0 20 7 20 20 0 13 7 20 20 20 l20 0 0
40 0 40 20 0 20 0 0 40 0 40 20 0 20 0 0 40 0 40 20 0 20 0 0 40 0 40 20 0 20
0 0 40 0 40 20 0 20 0 0 40 0 40 20 0 20 0 0 40 0 40 20 0 c13 0 20 7 20 20 0
13 7 20 20 20 l20 0 0 40 0 40 20 0 20 0 0 40 0 40 20 0 20 0 0 40 0 40 20 0
20 0 0 40 0 40 20 0 20 0 0 40 0 40 20 0 20 0 0 40 0 40 20 0 20 0 0 40 0 40
20 0 c13 0 20 7 20 20 0 13 7 20 20 20 l20 0 0 40 0 40 20 0 20 0 0 40 0 40
20 0 20 0 0 40 0 40 20 0 20 0 0 40 0 40 20 0 20 0 0 40 0 40 20 0 c13 0 20 7
20 20 0 13 7 20 20 20 l20 0 0 40 0 40 20 0 20 0 0 40 0 40 20 0 20 0 0 40 0
40 20 0 20 0 0 40 0 40 20 0 20 0 0 40 0 40 20 0 20 0 0 40 0 40 20 0 c13 0
20 7 20 20 0 13 7 20 20 20 l20 0 0 40 0 40 20 0 20 0 0 40 0 40 20 0 20 0 0
40 0 40 20 0 20 0 0 40 0 40 20 0 20 0 0 40 0 40 20 0 c13 0 20 7 20 20 0 13
7 20 20 20 l20 0 0 60 0 60 20 0 c13 0 20 7 20 20 0 13 7 20 20 20 l20 0 0 40
0 40 20 0 20 0 0 40 0 40 20 0 20 0 0 40 0 40 20 0 20 0 0 40 0 40 80 0 80 0
0 -40 0 -40 20 0 20 0 0 -40 0 -40 20 0 c13 0 20 -7 20 -20 0 -13 7 -20 20
-20 l20 0 0 -40 0 -40 20 0 20 0 0 -40 0 -40 20 0 20 0 0 -40 0 -40 20 0 20 0
0 -40 0 -40 20 0 c13 0 20 -7 20 -20 0 -13 7 -20 20 -20 l20 0 0 -40 0 -40 20
0 20 0 0 -40 0 -40 20 0 20 0 0 -40 0 -40 20 0 20 0 0 -40 0 -40 20 0 c13 0
20 -7 20 -20 0 -13 7 -20 20 -20 l20 0 0 -40 0 -40 20 0 20 0 0 -40 0 -40 20
0 c13 0 20 -7 20 -20 0 -13 7 -20 20 -20 l20 0 0 -40 0 -40 20 0 20 0 0 -40 0
-40 20 0 20 0 0 -40 0 -40 20 0 20 0 0 -40 0 -40 20 0 c13 0 20 -7 20 -20 0
-13 7 -20 20 -20 l20 0 0 -40 0 -40 20 0 20 0 0 -40 0 -40 20 0 20 0 0 -40 0
-40 20 0 c13 0 20 -7 20 -20 0 -13 7 -20 20 -20 l20 0 0 -40 0 -40 20 0 20 0
0 -40 0 -40 20 0 20 0 0 -40 0 -40 20 0 c13 0 20 -7 20 -20 0 -13 7 -20 20
-20 l20 0 0 -40 0 -40 20 0 20 0 0 -40 0 -40 20 0 20 0 0 -40 0 -40 20 0 c13
0 20 -7 20 -20 0 -13 7 -20 20 -20 l20 0 0 -40 0 -40 20 0 20 0 0 -40 0 -40
20 0 20 0 0 -40 0 -40 20 0 20 0 0 -40 0 -40 20 0 c13 0 20 -7 20 -20 0 -13 7
-20 20 -20 l20 0 0 -40 0 -40 20 0 20 0 0 -40 0 -40 20 0 c13 0 20 -7 20 -20
0 -13 7 -20 20 -20 l20 0 0 -40 0 -40 20 0 20 0 0 -40 0 -40 20 0 20 0 0 -40
0 -40 20 0 c13 0 20 -7 20 -20 0 -13 7 -20 20 -20 l20 0 0 -40 0 -40 20 0 20
0 0 -40 0 -40 20 0 20 0 0 -40 0 -40 20 0 20 0 0 -40 0 -40 20 0 20 0 0 -140
0 -140 -20 0 c-13 0 -20 -7 -20 -20 0 -13 -7 -20 -20 -20 -13 0 -20 -7 -20
-20 l0 -20 -40 0 -40 0 0 -20 0 -20 -60 0 -60 0 0 -20 0 -20 -140 0 -140 0 0
-40 0 -40 20 0 c13 0 20 -7 20 -20 l0 -20 1380 0 1380 0 0 20 c0 13 7 20 20
20 l20 0 0 40 0 40 -140 0 -140 0 0 20 0 20 -80 0 -80 0 0 20 c0 13 -7 20 -20
20 -13 0 -20 7 -20 20 l0 20 -40 0 -40 0 0 20 c0 13 -7 20 -20 20 -13 0 -20 7
-20 20 0 13 -7 20 -20 20 -13 0 -20 7 -20 20 0 13 -7 20 -20 20 -13 0 -20 7
-20 20 0 13 -7 20 -20 20 l-20 0 0 40 0 40 -20 0 c-13 0 -20 7 -20 20 0 13 -7
20 -20 20 -13 0 -20 7 -20 20 0 13 -7 20 -20 20 -13 0 -20 7 -20 20 0 13 -7
20 -20 20 l-20 0 0 40 0 40 -20 0 -20 0 0 40 0 40 -20 0 c-13 0 -20 7 -20 20
0 13 -7 20 -20 20 l-20 0 0 40 0 40 -20 0 -20 0 0 40 0 40 -20 0 -20 0 0 40 0
40 -20 0 c-13 0 -20 7 -20 20 0 13 -7 20 -20 20 l-20 0 0 40 0 40 -20 0 -20 0
0 40 0 40 -20 0 -20 0 0 40 0 40 -20 0 c-13 0 -20 7 -20 20 0 13 -7 20 -20 20
l-20 0 0 40 0 40 -20 0 -20 0 0 40 0 40 -20 0 -20 0 0 40 0 40 -20 0 c-13 0
-20 7 -20 20 0 13 -7 20 -20 20 l-20 0 0 40 0 40 -20 0 -20 0 0 40 0 40 -20 0
c-13 0 -20 7 -20 20 0 13 -7 20 -20 20 l-20 0 0 40 0 40 -20 0 -20 0 0 40 0
40 -20 0 c-13 0 -20 7 -20 20 0 13 -7 20 -20 20 l-20 0 0 40 0 40 -20 0 -20 0
0 40 0 40 -20 0 c-13 0 -20 7 -20 20 0 13 -7 20 -20 20 l-20 0 0 40 0 40 -20
0 -20 0 0 40 0 40 -20 0 c-13 0 -20 7 -20 20 0 13 -7 20 -20 20 l-20 0 0 40 0
40 -20 0 -20 0 0 40 0 40 -20 0 c-13 0 -20 7 -20 20 0 13 -7 20 -20 20 l-20 0
0 40 0 40 -20 0 -20 0 0 40 0 40 -20 0 c-13 0 -20 7 -20 20 0 13 -7 20 -20 20
l-20 0 0 40 0 40 -20 0 c-13 0 -20 7 -20 20 0 13 -7 20 -20 20 l-20 0 0 40 0
40 -20 0 -20 0 0 40 0 40 -20 0 -20 0 0 40 0 40 -20 0 c-13 0 -20 7 -20 20 0
13 -7 20 -20 20 l-20 0 0 40 0 40 -20 0 -20 0 0 40 0 40 -20 0 c-13 0 -20 7
-20 20 0 13 -7 20 -20 20 l-20 0 0 40 0 40 -20 0 -20 0 0 40 0 40 -20 0 c-13
0 -20 7 -20 20 0 13 -7 20 -20 20 l-20 0 0 40 0 40 -20 0 -20 0 0 40 0 40 -20
0 c-13 0 -20 7 -20 20 0 13 -7 20 -20 20 l-20 0 0 40 0 40 -20 0 c-13 0 -20 7
-20 20 0 13 -7 20 -20 20 l-20 0 0 40 0 40 -20 0 -20 0 0 40 0 40 -20 0 -20 0
0 40 0 40 -20 0 c-13 0 -20 7 -20 20 0 13 -7 20 -20 20 l-20 0 0 40 0 40 -20
0 -20 0 0 40 0 40 -20 0 -20 0 0 40 0 40 -20 0 c-13 0 -20 7 -20 20 0 13 -7
20 -20 20 l-20 0 0 40 0 40 -20 0 c-13 0 -20 7 -20 20 0 13 -7 20 -20 20 l-20
0 0 40 0 40 -20 0 -20 0 0 40 0 40 -20 0 -20 0 0 40 0 40 -20 0 c-13 0 -20 7
-20 20 0 13 -7 20 -20 20 l-20 0 0 40 0 40 -20 0 -20 0 0 40 0 40 -20 0 c-13
0 -20 7 -20 20 0 13 -7 20 -20 20 l-20 0 0 40 0 40 -20 0 -20 0 0 40 0 40 -20
0 c-13 0 -20 7 -20 20 0 13 -7 20 -20 20 -13 0 -20 7 -20 20 0 13 -7 20 -20
20 -13 0 -20 7 -20 20 0 13 -7 20 -20 20 -13 0 -20 7 -20 20 0 13 -7 20 -20
20 -13 0 -20 7 -20 20 0 13 -7 20 -20 20 -13 0 -20 7 -20 20 l0 20 -40 0 -40
0 0 -20z"/>
<path d="M17320 8900 l0 -20 -40 0 -40 0 0 -40 0 -40 40 0 40 0 0 -20 0 -20
80 0 80 0 0 -20 0 -20 100 0 100 0 0 -20 0 -20 40 0 40 0 0 -20 c0 -13 7 -20
20 -20 13 0 20 -7 20 -20 0 -13 7 -20 20 -20 13 0 20 -7 20 -20 0 -13 7 -20
20 -20 l20 0 0 -40 0 -40 20 0 20 0 0 -40 0 -40 20 0 20 0 0 -80 0 -80 20 0
20 0 0 -340 0 -340 -20 0 -20 0 0 -1840 0 -1840 -20 0 -20 0 0 -40 0 -40 -20
0 -20 0 0 -40 0 -40 -20 0 c-13 0 -20 -7 -20 -20 0 -13 -7 -20 -20 -20 -13 0
-20 -7 -20 -20 l0 -20 -40 0 -40 0 0 -20 0 -20 -40 0 -40 0 0 -20 0 -20 -80 0
-80 0 0 -20 0 -20 -120 0 -120 0 0 -40 0 -40 20 0 c13 0 20 -7 20 -20 l0 -20
1320 0 1320 0 0 60 0 60 -140 0 -140 0 0 20 0 20 -80 0 -80 0 0 20 0 20 -40 0
-40 0 0 20 c0 13 -7 20 -20 20 -13 0 -20 7 -20 20 0 13 -7 20 -20 20 l-20 0 0
40 0 40 -20 0 -20 0 0 80 0 80 -20 0 -20 0 0 1040 0 1040 1700 0 1700 0 0 -20
c0 -13 7 -20 20 -20 l20 0 0 -400 0 -400 -20 0 -20 0 0 -680 0 -680 -20 0 -20
0 0 -40 0 -40 -20 0 c-13 0 -20 -7 -20 -20 0 -13 -7 -20 -20 -20 -13 0 -20 -7
-20 -20 0 -13 -7 -20 -20 -20 -13 0 -20 -7 -20 -20 l0 -20 -40 0 -40 0 0 -20
0 -20 -80 0 -80 0 0 -20 0 -20 -140 0 -140 0 0 -40 0 -40 20 0 c13 0 20 -7 20
-20 l0 -20 1280 0 1280 0 0 20 c0 13 7 20 20 20 l20 0 0 40 0 40 -120 0 -120
0 0 20 0 20 -80 0 -80 0 0 20 0 20 -40 0 -40 0 0 20 c0 13 -7 20 -20 20 l-20
0 0 40 0 40 -20 0 c-13 0 -20 7 -20 20 0 13 -7 20 -20 20 l-20 0 0 60 0 60
-20 0 -20 0 0 60 0 60 -20 0 -20 0 0 100 0 100 -20 0 -20 0 0 240 0 240 20 0
20 0 0 1380 0 1380 -20 0 -20 0 0 380 0 380 20 0 20 0 0 80 0 80 20 0 20 0 0
60 0 60 20 0 c13 0 20 7 20 20 0 13 7 20 20 20 l20 0 0 40 0 40 20 0 c13 0 20
7 20 20 l0 20 40 0 40 0 0 20 c0 13 7 20 20 20 13 0 20 7 20 20 l0 20 80 0 80
0 0 20 0 20 100 0 100 0 0 20 c0 13 7 20 20 20 l20 0 0 40 0 40 -20 0 c-13 0
-20 7 -20 20 l0 20 -1260 0 -1260 0 0 -20 0 -20 -40 0 -40 0 0 -40 0 -40 60 0
60 0 0 -20 0 -20 120 0 120 0 0 -20 0 -20 80 0 80 0 0 -20 c0 -13 7 -20 20
-20 13 0 20 -7 20 -20 0 -13 7 -20 20 -20 13 0 20 -7 20 -20 0 -13 7 -20 20
-20 l20 0 0 -40 0 -40 20 0 20 0 0 -1120 0 -1120 -1700 0 -1700 0 0 1040 0
1040 20 0 20 0 0 80 0 80 20 0 20 0 0 40 0 40 20 0 c13 0 20 7 20 20 l0 20 40
0 40 0 0 20 c0 13 7 20 20 20 13 0 20 7 20 20 l0 20 60 0 60 0 0 20 0 20 120
0 120 0 0 20 0 20 40 0 40 0 0 40 0 40 -40 0 -40 0 0 20 0 20 -1260 0 -1260 0
0 -20z"/>
<path d="M26400 8900 l0 -20 -40 0 -40 0 0 -40 0 -40 80 0 80 0 0 -20 0 -20
100 0 100 0 0 -20 0 -20 60 0 60 0 0 -20 c0 -13 7 -20 20 -20 13 0 20 -7 20
-20 l0 -20 40 0 40 0 0 -40 0 -40 20 0 20 0 0 -40 0 -40 20 0 20 0 0 -80 0
-80 20 0 20 0 0 -200 0 -200 -20 0 -20 0 0 -340 0 -340 20 0 20 0 0 -900 0
-900 -20 0 -20 0 0 -160 0 -160 20 0 20 0 0 -140 0 -140 20 0 20 0 0 -60 0
-60 20 0 20 0 0 -60 0 -60 20 0 20 0 0 -40 0 -40 20 0 20 0 0 -40 0 -40 20 0
20 0 0 -40 0 -40 20 0 20 0 0 -40 0 -40 20 0 c13 0 20 -7 20 -20 0 -13 7 -20
20 -20 l20 0 0 -40 0 -40 20 0 c13 0 20 -7 20 -20 0 -13 7 -20 20 -20 13 0 20
-7 20 -20 0 -13 7 -20 20 -20 13 0 20 -7 20 -20 0 -13 7 -20 20 -20 13 0 20
-7 20 -20 0 -13 7 -20 20 -20 13 0 20 -7 20 -20 0 -13 7 -20 20 -20 13 0 20
-7 20 -20 0 -13 7 -20 20 -20 13 0 20 -7 20 -20 0 -13 7 -20 20 -20 13 0 20
-7 20 -20 l0 -20 40 0 40 0 0 -20 c0 -13 7 -20 20 -20 13 0 20 -7 20 -20 l0
-20 40 0 40 0 0 -20 0 -20 60 0 60 0 0 -20 0 -20 40 0 40 0 0 -20 0 -20 60 0
60 0 0 -20 0 -20 40 0 40 0 0 -20 0 -20 60 0 60 0 0 -20 0 -20 40 0 40 0 0
-20 0 -20 40 0 40 0 0 -20 0 -20 40 0 40 0 0 -20 0 -20 60 0 60 0 0 -20 0 -20
80 0 80 0 0 -20 0 -20 480 0 480 0 0 -20 0 -20 280 0 280 0 0 20 0 20 180 0
180 0 0 20 0 20 100 0 100 0 0 20 0 20 140 0 140 0 0 20 0 20 40 0 40 0 0 20
0 20 60 0 60 0 0 20 0 20 40 0 40 0 0 20 0 20 40 0 40 0 0 20 c0 13 7 20 20
20 13 0 20 7 20 20 0 13 7 20 20 20 13 0 20 7 20 20 0 13 7 20 20 20 13 0 20
7 20 20 l0 20 40 0 40 0 0 20 c0 13 7 20 20 20 13 0 20 7 20 20 l0 20 40 0 40
0 0 20 c0 13 7 20 20 20 13 0 20 7 20 20 l0 20 40 0 40 0 0 20 c0 13 7 20 20
20 13 0 20 7 20 20 l0 20 40 0 40 0 0 20 c0 13 7 20 20 20 13 0 20 7 20 20 0
13 7 20 20 20 13 0 20 7 20 20 0 13 7 20 20 20 13 0 20 7 20 20 0 13 7 20 20
20 l20 0 0 40 0 40 20 0 20 0 0 40 0 40 20 0 20 0 0 40 0 40 20 0 20 0 0 40 0
40 20 0 20 0 0 40 0 40 20 0 20 0 0 40 0 40 20 0 20 0 0 100 0 100 20 0 20 0
0 60 0 60 20 0 20 0 0 140 0 140 20 0 20 0 0 160 0 160 20 0 20 0 0 520 0 520
-20 0 -20 0 0 820 0 820 20 0 20 0 0 100 0 100 20 0 20 0 0 60 0 60 20 0 c13
0 20 7 20 20 0 13 7 20 20 20 13 0 20 7 20 20 0 13 7 20 20 20 13 0 20 7 20
20 0 13 7 20 20 20 13 0 20 7 20 20 l0 20 40 0 40 0 0 20 0 20 80 0 80 0 0 20
0 20 100 0 100 0 0 20 0 20 40 0 40 0 0 40 0 40 -40 0 -40 0 0 20 0 20 -920 0
-920 0 0 -60 0 -60 40 0 40 0 0 -20 0 -20 120 0 120 0 0 -20 0 -20 80 0 80 0
0 -20 0 -20 40 0 40 0 0 -20 c0 -13 7 -20 20 -20 13 0 20 -7 20 -20 0 -13 7
-20 20 -20 13 0 20 -7 20 -20 0 -13 7 -20 20 -20 l20 0 0 -40 0 -40 20 0 20 0
0 -60 0 -60 20 0 20 0 0 -660 0 -660 -20 0 -20 0 0 -1080 0 -1080 -20 0 -20 0
0 -100 0 -100 -20 0 -20 0 0 -60 0 -60 -20 0 -20 0 0 -40 0 -40 -20 0 c-13 0
-20 -7 -20 -20 0 -13 -7 -20 -20 -20 l-20 0 0 -40 0 -40 -20 0 c-13 0 -20 -7
-20 -20 0 -13 -7 -20 -20 -20 -13 0 -20 -7 -20 -20 0 -13 -7 -20 -20 -20 -13
0 -20 -7 -20 -20 0 -13 -7 -20 -20 -20 -13 0 -20 -7 -20 -20 0 -13 -7 -20 -20
-20 -13 0 -20 -7 -20 -20 0 -13 -7 -20 -20 -20 l-20 0 0 -40 0 -40 -40 0 -40
0 0 -20 c0 -13 -7 -20 -20 -20 -13 0 -20 -7 -20 -20 0 -13 -7 -20 -20 -20 -13
0 -20 -7 -20 -20 0 -13 -7 -20 -20 -20 -13 0 -20 -7 -20 -20 l0 -20 -40 0 -40
0 0 -20 0 -20 -40 0 -40 0 0 -20 0 -20 -40 0 -40 0 0 -20 c0 -13 -7 -20 -20
-20 -13 0 -20 -7 -20 -20 l0 -20 -60 0 -60 0 0 -20 0 -20 -40 0 -40 0 0 -20 0
-20 -60 0 -60 0 0 -20 0 -20 -60 0 -60 0 0 -20 0 -20 -80 0 -80 0 0 -20 0 -20
-460 0 -460 0 0 20 0 20 -80 0 -80 0 0 20 0 20 -60 0 -60 0 0 20 0 20 -80 0
-80 0 0 20 0 20 -60 0 -60 0 0 20 0 20 -60 0 -60 0 0 20 0 20 -40 0 -40 0 0
20 0 20 -40 0 -40 0 0 20 c0 13 -7 20 -20 20 -13 0 -20 7 -20 20 l0 20 -40 0
-40 0 0 20 c0 13 -7 20 -20 20 -13 0 -20 7 -20 20 0 13 -7 20 -20 20 -13 0
-20 7 -20 20 0 13 -7 20 -20 20 l-20 0 0 40 0 40 -20 0 c-13 0 -20 7 -20 20 0
13 -7 20 -20 20 -13 0 -20 7 -20 20 0 13 -7 20 -20 20 l-20 0 0 40 0 40 -20 0
c-13 0 -20 7 -20 20 0 13 -7 20 -20 20 l-20 0 0 40 0 40 -20 0 -20 0 0 40 0
40 -20 0 -20 0 0 60 0 60 -20 0 -20 0 0 60 0 60 -20 0 -20 0 0 80 0 80 -20 0
-20 0 0 160 0 160 -20 0 -20 0 0 1580 0 1580 20 0 20 0 0 80 0 80 20 0 20 0 0
40 0 40 20 0 c13 0 20 7 20 20 0 13 7 20 20 20 13 0 20 7 20 20 l0 20 40 0 40
0 0 20 0 20 60 0 60 0 0 20 0 20 100 0 100 0 0 20 0 20 60 0 60 0 0 40 0 40
-60 0 -60 0 0 20 0 20 -1240 0 -1240 0 0 -20z"/>
<path d="M1840 8860 l0 -20 -620 0 -620 0 0 -20 0 -20 -200 0 -200 0 0 -40 0
-40 40 0 40 0 0 -20 0 -20 80 0 80 0 0 -20 0 -20 80 0 80 0 0 -20 0 -20 60 0
60 0 0 -20 0 -20 60 0 60 0 0 -20 0 -20 40 0 40 0 0 -20 c0 -13 7 -20 20 -20
13 0 20 -7 20 -20 0 -13 7 -20 20 -20 13 0 20 -7 20 -20 0 -13 7 -20 20 -20
13 0 20 -7 20 -20 0 -13 7 -20 20 -20 l20 0 0 -40 0 -40 20 0 20 0 0 -2020 0
-2020 -20 0 -20 0 0 -100 0 -100 -20 0 -20 0 0 -40 0 -40 -20 0 -20 0 0 -60 0
-60 -20 0 -20 0 0 -40 0 -40 -20 0 c-13 0 -20 -7 -20 -20 0 -13 -7 -20 -20
-20 -13 0 -20 -7 -20 -20 0 -13 -7 -20 -20 -20 -13 0 -20 -7 -20 -20 0 -13 -7
-20 -20 -20 -13 0 -20 -7 -20 -20 l0 -20 -80 0 -80 0 0 -20 0 -20 -80 0 -80 0
0 -20 0 -20 -120 0 -120 0 0 -60 0 -60 1040 0 1040 0 0 20 c0 13 7 20 20 20
l20 0 0 40 0 40 -140 0 -140 0 0 20 0 20 -100 0 -100 0 0 20 0 20 -40 0 -40 0
0 20 0 20 -40 0 -40 0 0 20 c0 13 -7 20 -20 20 -13 0 -20 7 -20 20 0 13 -7 20
-20 20 -13 0 -20 7 -20 20 0 13 -7 20 -20 20 l-20 0 0 40 0 40 -20 0 -20 0 0
40 0 40 -20 0 -20 0 0 140 0 140 -20 0 -20 0 0 1820 0 1820 60 0 60 0 0 -20
c0 -13 7 -20 20 -20 13 0 20 -7 20 -20 l0 -20 40 0 40 0 0 -20 c0 -13 7 -20
20 -20 13 0 20 -7 20 -20 0 -13 7 -20 20 -20 13 0 20 -7 20 -20 0 -13 7 -20
20 -20 13 0 20 -7 20 -20 0 -13 7 -20 20 -20 13 0 20 -7 20 -20 0 -13 7 -20
20 -20 13 0 20 -7 20 -20 0 -13 7 -20 20 -20 13 0 20 -7 20 -20 0 -13 7 -20
20 -20 13 0 20 -7 20 -20 0 -13 7 -20 20 -20 13 0 20 -7 20 -20 0 -13 7 -20
20 -20 13 0 20 -7 20 -20 0 -13 7 -20 20 -20 13 0 20 -7 20 -20 0 -13 7 -20
20 -20 13 0 20 -7 20 -20 l0 -20 40 0 40 0 0 -20 c0 -13 7 -20 20 -20 13 0 20
-7 20 -20 0 -13 7 -20 20 -20 13 0 20 -7 20 -20 0 -13 7 -20 20 -20 13 0 20
-7 20 -20 0 -13 7 -20 20 -20 13 0 20 -7 20 -20 0 -13 7 -20 20 -20 13 0 20
-7 20 -20 0 -13 7 -20 20 -20 13 0 20 -7 20 -20 0 -13 7 -20 20 -20 13 0 20
-7 20 -20 0 -13 7 -20 20 -20 13 0 20 -7 20 -20 0 -13 7 -20 20 -20 13 0 20
-7 20 -20 0 -13 7 -20 20 -20 13 0 20 -7 20 -20 0 -13 7 -20 20 -20 13 0 20
-7 20 -20 0 -13 7 -20 20 -20 13 0 20 -7 20 -20 0 -13 7 -20 20 -20 13 0 20
-7 20 -20 l0 -20 40 0 40 0 0 -20 c0 -13 7 -20 20 -20 13 0 20 -7 20 -20 0
-13 7 -20 20 -20 13 0 20 -7 20 -20 0 -13 7 -20 20 -20 13 0 20 -7 20 -20 0
-13 7 -20 20 -20 13 0 20 -7 20 -20 0 -13 7 -20 20 -20 13 0 20 -7 20 -20 0
-13 7 -20 20 -20 13 0 20 -7 20 -20 0 -13 7 -20 20 -20 13 0 20 -7 20 -20 0
-13 7 -20 20 -20 13 0 20 -7 20 -20 0 -13 7 -20 20 -20 13 0 20 -7 20 -20 0
-13 7 -20 20 -20 13 0 20 -7 20 -20 0 -13 7 -20 20 -20 13 0 20 -7 20 -20 0
-13 7 -20 20 -20 13 0 20 -7 20 -20 0 -13 7 -20 20 -20 13 0 20 -7 20 -20 0
-13 7 -20 20 -20 13 0 20 -7 20 -20 l0 -20 40 0 40 0 0 -20 c0 -13 7 -20 20
-20 13 0 20 -7 20 -20 0 -13 7 -20 20 -20 13 0 20 -7 20 -20 0 -13 7 -20 20
-20 13 0 20 -7 20 -20 0 -13 7 -20 20 -20 13 0 20 -7 20 -20 0 -13 7 -20 20
-20 13 0 20 -7 20 -20 0 -13 7 -20 20 -20 13 0 20 -7 20 -20 0 -13 7 -20 20
-20 13 0 20 -7 20 -20 0 -13 7 -20 20 -20 13 0 20 -7 20 -20 0 -13 7 -20 20
-20 13 0 20 -7 20 -20 0 -13 7 -20 20 -20 13 0 20 -7 20 -20 0 -13 7 -20 20
-20 13 0 20 -7 20 -20 l0 -20 40 0 40 0 0 -20 c0 -13 7 -20 20 -20 13 0 20 -7
20 -20 0 -13 7 -20 20 -20 13 0 20 -7 20 -20 0 -13 7 -20 20 -20 13 0 20 -7
20 -20 0 -13 7 -20 20 -20 13 0 20 -7 20 -20 0 -13 7 -20 20 -20 13 0 20 -7
20 -20 0 -13 7 -20 20 -20 13 0 20 -7 20 -20 0 -13 7 -20 20 -20 13 0 20 -7
20 -20 0 -13 7 -20 20 -20 13 0 20 -7 20 -20 0 -13 7 -20 20 -20 13 0 20 -7
20 -20 0 -13 7 -20 20 -20 13 0 20 -7 20 -20 l0 -20 40 0 40 0 0 -20 c0 -13 7
-20 20 -20 13 0 20 -7 20 -20 0 -13 7 -20 20 -20 13 0 20 -7 20 -20 0 -13 7
-20 20 -20 13 0 20 -7 20 -20 0 -13 7 -20 20 -20 13 0 20 -7 20 -20 0 -13 7
-20 20 -20 13 0 20 -7 20 -20 0 -13 7 -20 20 -20 13 0 20 -7 20 -20 0 -13 7
-20 20 -20 13 0 20 -7 20 -20 0 -13 7 -20 20 -20 13 0 20 -7 20 -20 0 -13 7
-20 20 -20 13 0 20 -7 20 -20 0 -13 7 -20 20 -20 13 0 20 -7 20 -20 0 -13 7
-20 20 -20 13 0 20 -7 20 -20 0 -13 7 -20 20 -20 13 0 20 -7 20 -20 0 -13 7
-20 20 -20 13 0 20 -7 20 -20 0 -13 7 -20 20 -20 13 0 20 -7 20 -20 l0 -20 40
0 40 0 0 -20 c0 -13 7 -20 20 -20 13 0 20 -7 20 -20 0 -13 7 -20 20 -20 13 0
20 -7 20 -20 0 -13 7 -20 20 -20 13 0 20 -7 20 -20 0 -13 7 -20 20 -20 13 0
20 -7 20 -20 0 -13 7 -20 20 -20 13 0 20 -7 20 -20 0 -13 7 -20 20 -20 13 0
20 -7 20 -20 0 -13 7 -20 20 -20 13 0 20 -7 20 -20 0 -13 7 -20 20 -20 13 0
20 -7 20 -20 0 -13 7 -20 20 -20 13 0 20 -7 20 -20 0 -13 7 -20 20 -20 13 0
20 -7 20 -20 0 -13 7 -20 20 -20 13 0 20 -7 20 -20 0 -13 7 -20 20 -20 13 0
20 -7 20 -20 0 -13 7 -20 20 -20 13 0 20 -7 20 -20 l0 -20 40 0 40 0 0 -40 0
-40 40 0 40 0 0 -20 c0 -13 7 -20 20 -20 13 0 20 -7 20 -20 0 -13 7 -20 20
-20 13 0 20 -7 20 -20 0 -13 7 -20 20 -20 13 0 20 -7 20 -20 0 -13 7 -20 20
-20 13 0 20 -7 20 -20 0 -13 7 -20 20 -20 13 0 20 -7 20 -20 0 -13 7 -20 20
-20 13 0 20 -7 20 -20 0 -13 7 -20 20 -20 13 0 20 -7 20 -20 0 -13 7 -20 20
-20 13 0 20 -7 20 -20 0 -13 7 -20 20 -20 13 0 20 -7 20 -20 0 -13 7 -20 20
-20 13 0 20 -7 20 -20 0 -13 7 -20 20 -20 13 0 20 -7 20 -20 0 -13 7 -20 20
-20 13 0 20 -7 20 -20 0 -13 7 -20 20 -20 13 0 20 -7 20 -20 0 -13 7 -20 20
-20 13 0 20 -7 20 -20 l0 -20 280 0 280 0 0 2460 0 2460 20 0 20 0 0 40 0 40
20 0 c13 0 20 7 20 20 0 13 7 20 20 20 l20 0 0 40 0 40 20 0 c13 0 20 7 20 20
l0 20 40 0 40 0 0 20 0 20 40 0 40 0 0 20 0 20 40 0 40 0 0 20 0 20 40 0 40 0
0 20 0 20 80 0 80 0 0 20 0 20 80 0 80 0 0 60 0 60 -820 0 -820 0 0 -20 0 -20
-140 0 -140 0 0 -20 0 -20 60 0 60 0 0 -20 0 -20 100 0 100 0 0 -20 0 -20 40
0 40 0 0 -20 0 -20 60 0 60 0 0 -20 c0 -13 7 -20 20 -20 13 0 20 -7 20 -20 0
-13 7 -20 20 -20 13 0 20 -7 20 -20 0 -13 7 -20 20 -20 13 0 20 -7 20 -20 0
-13 7 -20 20 -20 l20 0 0 -40 0 -40 20 0 20 0 0 -80 0 -80 20 0 20 0 0 -240 0
-240 -20 0 -20 0 0 -1460 0 -1460 -60 0 -60 0 0 20 c0 13 -7 20 -20 20 -13 0
-20 7 -20 20 0 13 -7 20 -20 20 -13 0 -20 7 -20 20 0 13 -7 20 -20 20 -13 0
-20 7 -20 20 0 13 -7 20 -20 20 -13 0 -20 7 -20 20 0 13 -7 20 -20 20 -13 0
-20 7 -20 20 0 13 -7 20 -20 20 -13 0 -20 7 -20 20 0 13 -7 20 -20 20 -13 0
-20 7 -20 20 0 13 -7 20 -20 20 -13 0 -20 7 -20 20 0 13 -7 20 -20 20 -13 0
-20 7 -20 20 0 13 -7 20 -20 20 -13 0 -20 7 -20 20 0 13 -7 20 -20 20 -13 0
-20 7 -20 20 0 13 -7 20 -20 20 -13 0 -20 7 -20 20 0 13 -7 20 -20 20 -13 0
-20 7 -20 20 0 13 -7 20 -20 20 -13 0 -20 7 -20 20 0 13 -7 20 -20 20 -13 0
-20 7 -20 20 0 13 -7 20 -20 20 -13 0 -20 7 -20 20 0 13 -7 20 -20 20 -13 0
-20 7 -20 20 0 13 -7 20 -20 20 -13 0 -20 7 -20 20 0 13 -7 20 -20 20 -13 0
-20 7 -20 20 0 13 -7 20 -20 20 -13 0 -20 7 -20 20 0 13 -7 20 -20 20 -13 0
-20 7 -20 20 0 13 -7 20 -20 20 -13 0 -20 7 -20 20 0 13 -7 20 -20 20 -13 0
-20 7 -20 20 0 13 -7 20 -20 20 -13 0 -20 7 -20 20 0 13 -7 20 -20 20 -13 0
-20 7 -20 20 0 13 -7 20 -20 20 -13 0 -20 7 -20 20 0 13 -7 20 -20 20 -13 0
-20 7 -20 20 0 13 -7 20 -20 20 -13 0 -20 7 -20 20 0 13 -7 20 -20 20 -13 0
-20 7 -20 20 0 13 -7 20 -20 20 -13 0 -20 7 -20 20 0 13 -7 20 -20 20 -13 0
-20 7 -20 20 0 13 -7 20 -20 20 -13 0 -20 7 -20 20 0 13 -7 20 -20 20 -13 0
-20 7 -20 20 0 13 -7 20 -20 20 -13 0 -20 7 -20 20 0 13 -7 20 -20 20 -13 0
-20 7 -20 20 l0 20 -40 0 -40 0 0 40 0 40 -20 0 c-13 0 -20 7 -20 20 l0 20
-40 0 -40 0 0 20 c0 13 -7 20 -20 20 -13 0 -20 7 -20 20 0 13 -7 20 -20 20
-13 0 -20 7 -20 20 0 13 -7 20 -20 20 -13 0 -20 7 -20 20 0 13 -7 20 -20 20
-13 0 -20 7 -20 20 0 13 -7 20 -20 20 -13 0 -20 7 -20 20 0 13 -7 20 -20 20
-13 0 -20 7 -20 20 0 13 -7 20 -20 20 -13 0 -20 7 -20 20 0 13 -7 20 -20 20
-13 0 -20 7 -20 20 0 13 -7 20 -20 20 -13 0 -20 7 -20 20 0 13 -7 20 -20 20
-13 0 -20 7 -20 20 0 13 -7 20 -20 20 -13 0 -20 7 -20 20 0 13 -7 20 -20 20
-13 0 -20 7 -20 20 0 13 -7 20 -20 20 -13 0 -20 7 -20 20 0 13 -7 20 -20 20
-13 0 -20 7 -20 20 0 13 -7 20 -20 20 -13 0 -20 7 -20 20 0 13 -7 20 -20 20
-13 0 -20 7 -20 20 0 13 -7 20 -20 20 -13 0 -20 7 -20 20 0 13 -7 20 -20 20
-13 0 -20 7 -20 20 0 13 -7 20 -20 20 -13 0 -20 7 -20 20 0 13 -7 20 -20 20
-13 0 -20 7 -20 20 l0 20 -40 0 -40 0 0 20 c0 13 -7 20 -20 20 -13 0 -20 7
-20 20 0 13 -7 20 -20 20 -13 0 -20 7 -20 20 0 13 -7 20 -20 20 -13 0 -20 7
-20 20 0 13 -7 20 -20 20 -13 0 -20 7 -20 20 0 13 -7 20 -20 20 -13 0 -20 7
-20 20 0 13 -7 20 -20 20 -13 0 -20 7 -20 20 0 13 -7 20 -20 20 -13 0 -20 7
-20 20 0 13 -7 20 -20 20 -13 0 -20 7 -20 20 0 13 -7 20 -20 20 -13 0 -20 7
-20 20 0 13 -7 20 -20 20 -13 0 -20 7 -20 20 0 13 -7 20 -20 20 -13 0 -20 7
-20 20 0 13 -7 20 -20 20 -13 0 -20 7 -20 20 0 13 -7 20 -20 20 -13 0 -20 7
-20 20 0 13 -7 20 -20 20 -13 0 -20 7 -20 20 0 13 -7 20 -20 20 -13 0 -20 7
-20 20 0 13 -7 20 -20 20 -13 0 -20 7 -20 20 0 13 -7 20 -20 20 -13 0 -20 7
-20 20 l0 20 -40 0 -40 0 0 20 c0 13 -7 20 -20 20 -13 0 -20 7 -20 20 0 13 -7
20 -20 20 -13 0 -20 7 -20 20 0 13 -7 20 -20 20 -13 0 -20 7 -20 20 0 13 -7
20 -20 20 -13 0 -20 7 -20 20 0 13 -7 20 -20 20 -13 0 -20 7 -20 20 0 13 -7
20 -20 20 -13 0 -20 7 -20 20 0 13 -7 20 -20 20 -13 0 -20 7 -20 20 0 13 -7
20 -20 20 -13 0 -20 7 -20 20 0 13 -7 20 -20 20 -13 0 -20 7 -20 20 0 13 -7
20 -20 20 -13 0 -20 7 -20 20 0 13 -7 20 -20 20 -13 0 -20 7 -20 20 0 13 -7
20 -20 20 -13 0 -20 7 -20 20 0 13 -7 20 -20 20 -13 0 -20 7 -20 20 0 13 -7
20 -20 20 -13 0 -20 7 -20 20 l0 20 -40 0 -40 0 0 20 c0 13 -7 20 -20 20 -13
0 -20 7 -20 20 0 13 -7 20 -20 20 -13 0 -20 7 -20 20 0 13 -7 20 -20 20 l-20
0 0 40 0 40 -20 0 c-13 0 -20 7 -20 20 0 13 -7 20 -20 20 -13 0 -20 7 -20 20
l0 20 -40 0 -40 0 0 20 0 20 -200 0 -200 0 0 -20z"/>
</g>
<g fill="#B89870" transform="translate(0.000000,2288.000000) scale(0.100000,-0.100000)">
<path d="M18600 22700 l0 -20 -160 0 -160 0 0 -20 0 -20 -120 0 -120 0 0 -20
0 -20 -60 0 -60 0 0 -20 0 -20 -80 0 -80 0 0 -20 0 -20 -60 0 -60 0 0 -20 0
-20 -40 0 -40 0 0 -20 0 -20 -60 0 -60 0 0 -20 0 -20 -60 0 -60 0 0 -20 c0
-13 -7 -20 -20 -20 -13 0 -20 -7 -20 -20 l0 -20 -60 0 -60 0 0 -20 0 -20 -40
0 -40 0 0 -20 c0 -13 -7 -20 -20 -20 -13 0 -20 -7 -20 -20 l0 -20 -40 0 -40 0
0 -20 0 -20 -40 0 -40 0 0 -20 0 -20 -40 0 -40 0 0 -20 c0 -13 -7 -20 -20 -20
-13 0 -20 -7 -20 -20 l0 -20 -40 0 -40 0 0 -20 0 -20 -40 0 -40 0 0 -20 c0
-13 -7 -20 -20 -20 -13 0 -20 -7 -20 -20 l0 -20 -40 0 -40 0 0 -20 c0 -13 -7
-20 -20 -20 -13 0 -20 -7 -20 -20 0 -13 -7 -20 -20 -20 -13 0 -20 -7 -20 -20
l0 -20 -40 0 -40 0 0 -20 c0 -13 -7 -20 -20 -20 -13 0 -20 -7 -20 -20 0 -13
-7 -20 -20 -20 -13 0 -20 -7 -20 -20 0 -13 -7 -20 -20 -20 -13 0 -20 -7 -20
-20 l0 -20 -40 0 -40 0 0 -20 c0 -13 -7 -20 -20 -20 -13 0 -20 -7 -20 -20 0
-13 -7 -20 -20 -20 -13 0 -20 -7 -20 -20 0 -13 -7 -20 -20 -20 -13 0 -20 -7
-20 -20 0 -13 -7 -20 -20 -20 -13 0 -20 -7 -20 -20 0 -13 -7 -20 -20 -20 -13
0 -20 -7 -20 -20 0 -13 -7 -20 -20 -20 -13 0 -20 -7 -20 -20 0 -13 -7 -20 -20
-20 -13 0 -20 -7 -20 -20 0 -13 -7 -20 -20 -20 -13 0 -20 -7 -20 -20 0 -13 -7
-20 -20 -20 -13 0 -20 -7 -20 -20 0 -13 -7 -20 -20 -20 -13 0 -20 -7 -20 -20
0 -13 -7 -20 -20 -20 -13 0 -20 -7 -20 -20 0 -13 -7 -20 -20 -20 -13 0 -20 -7
-20 -20 0 -13 -7 -20 -20 -20 l-20 0 0 -40 0 -40 -60 0 -60 0 0 20 c0 13 -7
20 -20 20 -13 0 -20 7 -20 20 0 13 -7 20 -20 20 l-20 0 0 40 0 40 -20 0 -20 0
0 40 0 40 -20 0 c-13 0 -20 7 -20 20 0 13 -7 20 -20 20 l-20 0 0 40 0 40 -20
0 c-13 0 -20 7 -20 20 0 13 -7 20 -20 20 l-20 0 0 40 0 40 -20 0 -20 0 0 40 0
40 -20 0 c-13 0 -20 7 -20 20 0 13 -7 20 -20 20 -13 0 -20 7 -20 20 0 13 -7
20 -20 20 l-20 0 0 40 0 40 -20 0 -20 0 0 40 0 40 -20 0 c-13 0 -20 7 -20 20
0 13 -7 20 -20 20 l-20 0 0 40 0 40 -20 0 c-13 0 -20 7 -20 20 0 13 -7 20 -20
20 l-20 0 0 40 0 40 -20 0 c-13 0 -20 7 -20 20 0 13 -7 20 -20 20 l-20 0 0 40
0 40 -20 0 c-13 0 -20 7 -20 20 0 13 -7 20 -20 20 l-20 0 0 40 0 40 -20 0 -20
0 0 40 0 40 -20 0 c-13 0 -20 7 -20 20 0 13 -7 20 -20 20 l-20 0 0 40 0 40
-1580 0 -1580 0 0 -20 c0 -13 -7 -20 -20 -20 l-20 0 0 -140 0 -140 20 0 c13 0
20 -7 20 -20 l0 -20 600 0 600 0 0 -4780 0 -4780 -600 0 -600 0 0 -20 c0 -13
-7 -20 -20 -20 l-20 0 0 -140 0 -140 20 0 c13 0 20 -7 20 -20 l0 -20 1400 0
1400 0 0 20 c0 13 7 20 20 20 l20 0 0 160 0 160 -620 0 -620 0 0 4740 0 4740
60 0 60 0 0 -40 0 -40 20 0 20 0 0 -40 0 -40 20 0 c13 0 20 -7 20 -20 0 -13 7
-20 20 -20 l20 0 0 -40 0 -40 20 0 c13 0 20 -7 20 -20 0 -13 7 -20 20 -20 l20
0 0 -40 0 -40 20 0 c13 0 20 -7 20 -20 0 -13 7 -20 20 -20 l20 0 0 -40 0 -40
20 0 c13 0 20 -7 20 -20 0 -13 7 -20 20 -20 l20 0 0 -40 0 -40 20 0 c13 0 20
-7 20 -20 0 -13 7 -20 20 -20 l20 0 0 -40 0 -40 20 0 c13 0 20 -7 20 -20 0
-13 7 -20 20 -20 l20 0 0 -40 0 -40 20 0 20 0 0 -40 0 -40 20 0 c13 0 20 -7
20 -20 0 -13 7 -20 20 -20 l20 0 0 -40 0 -40 20 0 c13 0 20 -7 20 -20 0 -13 7
-20 20 -20 l20 0 0 -40 0 -40 20 0 c13 0 20 -7 20 -20 0 -13 7 -20 20 -20 l20
0 0 -40 0 -40 20 0 c13 0 20 -7 20 -20 0 -13 7 -20 20 -20 l20 0 0 -40 0 -40
20 0 20 0 0 -40 0 -40 20 0 c13 0 20 -7 20 -20 0 -13 7 -20 20 -20 l20 0 0
-40 0 -40 20 0 c13 0 20 -7 20 -20 0 -13 7 -20 20 -20 l20 0 0 -40 0 -40 20 0
c13 0 20 -7 20 -20 0 -13 7 -20 20 -20 l20 0 0 -40 0 -40 20 0 c13 0 20 -7 20
-20 0 -13 7 -20 20 -20 l20 0 0 -40 0 -40 20 0 c13 0 20 -7 20 -20 0 -13 7
-20 20 -20 l20 0 0 -40 0 -40 20 0 c13 0 20 -7 20 -20 0 -13 7 -20 20 -20 l20
0 0 -40 0 -40 20 0 c13 0 20 -7 20 -20 0 -13 7 -20 20 -20 l20 0 0 -40 0 -40
20 0 20 0 0 -40 0 -40 20 0 c13 0 20 -7 20 -20 0 -13 7 -20 20 -20 l20 0 0
-80 0 -80 -40 0 -40 0 0 -20 c0 -13 -7 -20 -20 -20 l-20 0 0 -60 0 -60 -20 0
-20 0 0 -60 0 -60 -20 0 -20 0 0 -60 0 -60 -20 0 -20 0 0 -80 0 -80 -20 0 -20
0 0 -80 0 -80 -20 0 -20 0 0 -100 0 -100 -20 0 -20 0 0 -140 0 -140 -20 0 -20
0 0 -140 0 -140 -20 0 -20 0 0 -640 0 -640 20 0 20 0 0 -140 0 -140 20 0 20 0
0 -140 0 -140 20 0 20 0 0 -100 0 -100 20 0 20 0 0 -60 0 -60 20 0 20 0 0
-100 0 -100 20 0 20 0 0 -60 0 -60 20 0 20 0 0 -60 0 -60 20 0 20 0 0 -60 0
-60 20 0 20 0 0 -60 0 -60 20 0 20 0 0 -40 0 -40 20 0 20 0 0 -60 0 -60 20 0
20 0 0 -40 0 -40 20 0 20 0 0 -40 0 -40 20 0 20 0 0 -40 0 -40 20 0 20 0 0
-40 0 -40 20 0 20 0 0 -40 0 -40 20 0 20 0 0 -40 0 -40 20 0 20 0 0 -40 0 -40
20 0 20 0 0 -40 0 -40 20 0 c13 0 20 -7 20 -20 0 -13 7 -20 20 -20 l20 0 0
-40 0 -40 20 0 c13 0 20 -7 20 -20 0 -13 7 -20 20 -20 l20 0 0 -40 0 -40 20 0
20 0 0 -40 0 -40 20 0 c13 0 20 -7 20 -20 0 -13 7 -20 20 -20 13 0 20 -7 20
-20 0 -13 7 -20 20 -20 l20 0 0 -40 0 -40 20 0 c13 0 20 -7 20 -20 0 -13 7
-20 20 -20 13 0 20 -7 20 -20 0 -13 7 -20 20 -20 l20 0 0 -40 0 -40 20 0 c13
0 20 -7 20 -20 0 -13 7 -20 20 -20 13 0 20 -7 20 -20 0 -13 7 -20 20 -20 13 0
20 -7 20 -20 0 -13 7 -20 20 -20 13 0 20 -7 20 -20 0 -13 7 -20 20 -20 13 0
20 -7 20 -20 0 -13 7 -20 20 -20 l20 0 0 -40 0 -40 40 0 40 0 0 -20 c0 -13 7
-20 20 -20 l20 0 0 -40 0 -40 40 0 40 0 0 -20 c0 -13 7 -20 20 -20 13 0 20 -7
20 -20 0 -13 7 -20 20 -20 13 0 20 -7 20 -20 0 -13 7 -20 20 -20 13 0 20 -7
20 -20 0 -13 7 -20 20 -20 13 0 20 -7 20 -20 0 -13 7 -20 20 -20 13 0 20 -7
20 -20 0 -13 7 -20 20 -20 13 0 20 -7 20 -20 0 -13 7 -20 20 -20 13 0 20 -7
20 -20 0 -13 7 -20 20 -20 13 0 20 -7 20 -20 l0 -20 40 0 40 0 0 -20 c0 -13 7
-20 20 -20 13 0 20 -7 20 -20 0 -13 7 -20 20 -20 13 0 20 -7 20 -20 l0 -20 40
0 40 0 0 -20 0 -20 40 0 40 0 0 -20 c0 -13 7 -20 20 -20 13 0 20 -7 20 -20 l0
-20 40 0 40 0 0 -20 c0 -13 7 -20 20 -20 13 0 20 -7 20 -20 l0 -20 40 0 40 0
0 -20 0 -20 40 0 40 0 0 -20 0 -20 40 0 40 0 0 -20 0 -20 40 0 40 0 0 -20 0
-20 40 0 40 0 0 -20 0 -20 40 0 40 0 0 -20 0 -20 60 0 60 0 0 -20 0 -20 40 0
40 0 0 -20 0 -20 60 0 60 0 0 -20 0 -20 60 0 60 0 0 -20 0 -20 100 0 100 0 0
-20 0 -20 100 0 100 0 0 -20 0 -20 100 0 100 0 0 -20 0 -20 380 0 380 0 0 20
0 20 100 0 100 0 0 20 0 20 100 0 100 0 0 20 0 20 100 0 100 0 0 20 0 20 60 0
60 0 0 20 0 20 80 0 80 0 0 20 0 20 60 0 60 0 0 20 0 20 40 0 40 0 0 20 0 20
60 0 60 0 0 20 0 20 60 0 60 0 0 20 c0 13 7 20 20 20 13 0 20 7 20 20 l0 20
60 0 60 0 0 20 0 20 60 0 60 0 0 20 0 20 40 0 40 0 0 20 0 20 60 0 60 0 0 20
0 20 120 0 120 0 0 20 0 20 260 0 260 0 0 -20 0 -20 120 0 120 0 0 -20 0 -20
60 0 60 0 0 -20 0 -20 40 0 40 0 0 -20 0 -20 40 0 40 0 0 -20 0 -20 40 0 40 0
0 -20 c0 -13 7 -20 20 -20 13 0 20 -7 20 -20 l0 -20 40 0 40 0 0 -20 c0 -13 7
-20 20 -20 l20 0 0 -40 0 -40 120 0 120 0 0 1880 0 1880 -120 0 -120 0 0 -20
c0 -13 -7 -20 -20 -20 l-20 0 0 -100 0 -100 -20 0 -20 0 0 -60 0 -60 -20 0
-20 0 0 -80 0 -80 -20 0 -20 0 0 -80 0 -80 -20 0 -20 0 0 -40 0 -40 -20 0 -20
0 0 -60 0 -60 -20 0 -20 0 0 -60 0 -60 -20 0 -20 0 0 -40 0 -40 -20 0 -20 0 0
-40 0 -40 -20 0 -20 0 0 -40 0 -40 -20 0 -20 0 0 -40 0 -40 -20 0 -20 0 0 -40
0 -40 -20 0 -20 0 0 -40 0 -40 -20 0 c-13 0 -20 -7 -20 -20 0 -13 -7 -20 -20
-20 l-20 0 0 -40 0 -40 -20 0 -20 0 0 -40 0 -40 -20 0 c-13 0 -20 -7 -20 -20
0 -13 -7 -20 -20 -20 l-20 0 0 -40 0 -40 -20 0 c-13 0 -20 -7 -20 -20 0 -13
-7 -20 -20 -20 l-20 0 0 -40 0 -40 -20 0 c-13 0 -20 -7 -20 -20 0 -13 -7 -20
-20 -20 -13 0 -20 -7 -20 -20 0 -13 -7 -20 -20 -20 -13 0 -20 -7 -20 -20 0
-13 -7 -20 -20 -20 l-20 0 0 -40 0 -40 -20 0 c-13 0 -20 -7 -20 -20 0 -13 -7
-20 -20 -20 -13 0 -20 -7 -20 -20 0 -13 -7 -20 -20 -20 -13 0 -20 -7 -20 -20
0 -13 -7 -20 -20 -20 -13 0 -20 -7 -20 -20 0 -13 -7 -20 -20 -20 -13 0 -20 -7
-20 -20 0 -13 -7 -20 -20 -20 -13 0 -20 -7 -20 -20 0 -13 -7 -20 -20 -20 l-20
0 0 -40 0 -40 -20 0 c-13 0 -20 -7 -20 -20 0 -13 -7 -20 -20 -20 -13 0 -20 -7
-20 -20 0 -13 -7 -20 -20 -20 -13 0 -20 -7 -20 -20 l0 -20 -40 0 -40 0 0 -20
c0 -13 -7 -20 -20 -20 -13 0 -20 -7 -20 -20 0 -13 -7 -20 -20 -20 -13 0 -20
-7 -20 -20 0 -13 -7 -20 -20 -20 -13 0 -20 -7 -20 -20 0 -13 -7 -20 -20 -20
-13 0 -20 -7 -20 -20 0 -13 -7 -20 -20 -20 -13 0 -20 -7 -20 -20 l0 -20 -40 0
-40 0 0 -20 c0 -13 -7 -20 -20 -20 -13 0 -20 -7 -20 -20 0 -13 -7 -20 -20 -20
-13 0 -20 -7 -20 -20 0 -13 -7 -20 -20 -20 -13 0 -20 -7 -20 -20 l0 -20 -40 0
-40 0 0 -20 0 -20 -40 0 -40 0 0 -20 c0 -13 -7 -20 -20 -20 -13 0 -20 -7 -20
-20 l0 -20 -40 0 -40 0 0 -20 c0 -13 -7 -20 -20 -20 -13 0 -20 -7 -20 -20 l0
-20 -40 0 -40 0 0 -20 c0 -13 -7 -20 -20 -20 -13 0 -20 -7 -20 -20 l0 -20 -60
0 -60 0 0 -20 c0 -13 -7 -20 -20 -20 -13 0 -20 -7 -20 -20 l0 -20 -60 0 -60 0
0 860 0 860 -20 0 c-13 0 -20 7 -20 20 0 13 -7 20 -20 20 l-20 0 0 40 0 40
-20 0 c-13 0 -20 7 -20 20 0 13 -7 20 -20 20 l-20 0 0 40 0 40 -20 0 -20 0 0
40 0 40 -20 0 c-13 0 -20 7 -20 20 0 13 -7 20 -20 20 -13 0 -20 7 -20 20 0 13
-7 20 -20 20 l-20 0 0 40 0 40 -20 0 -20 0 0 40 0 40 -20 0 c-13 0 -20 7 -20
20 0 13 -7 20 -20 20 l-20 0 0 60 0 60 -40 0 -40 0 0 60 0 60 60 0 60 0 0 -40
0 -40 20 0 c13 0 20 7 20 20 0 13 7 20 20 20 13 0 20 7 20 20 0 13 -7 20 -20
20 l-20 0 0 3020 0 3020 20 0 c13 0 20 7 20 20 l0 20 -40 0 -40 0 0 -20 0 -20
-40 0 -40 0 0 -20 c0 -13 -7 -20 -20 -20 l-20 0 0 -40 0 -40 -40 0 -40 0 0
-20 c0 -13 -7 -20 -20 -20 -13 0 -20 -7 -20 -20 0 -13 -7 -20 -20 -20 -13 0
-20 -7 -20 -20 0 -13 -7 -20 -20 -20 -13 0 -20 -7 -20 -20 0 -13 -7 -20 -20
-20 l-20 0 0 -2640 0 -2640 -60 0 -60 0 0 20 c0 13 -7 20 -20 20 -13 0 -20 7
-20 20 0 13 -7 20 -20 20 l-20 0 0 40 0 40 -20 0 -20 0 0 40 0 40 -20 0 c-13
0 -20 7 -20 20 0 13 -7 20 -20 20 l-20 0 0 40 0 40 -20 0 c-13 0 -20 7 -20 20
0 13 -7 20 -20 20 l-20 0 0 80 0 80 60 0 60 0 0 1920 0 1920 -20 0 c-13 0 -20
7 -20 20 0 13 -7 20 -20 20 -13 0 -20 -7 -20 -20 0 -13 -7 -20 -20 -20 -13 0
-20 -7 -20 -20 0 -13 -7 -20 -20 -20 -13 0 -20 -7 -20 -20 0 -13 -7 -20 -20
-20 -13 0 -20 -7 -20 -20 0 -13 -7 -20 -20 -20 -13 0 -20 -7 -20 -20 0 -13 -7
-20 -20 -20 -13 0 -20 -7 -20 -20 0 -13 -7 -20 -20 -20 -13 0 -20 -7 -20 -20
0 -13 -7 -20 -20 -20 -13 0 -20 -7 -20 -20 0 -13 -7 -20 -20 -20 -13 0 -20 -7
-20 -20 0 -13 -7 -20 -20 -20 -13 0 -20 -7 -20 -20 0 -13 -7 -20 -20 -20 -13
0 -20 -7 -20 -20 0 -13 -7 -20 -20 -20 -13 0 -20 -7 -20 -20 0 -13 -7 -20 -20
-20 -13 0 -20 -7 -20 -20 0 -13 -7 -20 -20 -20 -13 0 -20 -7 -20 -20 0 -13 -7
-20 -20 -20 -13 0 -20 -7 -20 -20 0 -13 -7 -20 -20 -20 l-20 0 0 -1180 0
-1180 -60 0 -60 0 0 20 c0 13 -7 20 -20 20 l-20 0 0 40 0 40 -20 0 c-13 0 -20
7 -20 20 0 13 -7 20 -20 20 l-20 0 0 40 0 40 -20 0 c-13 0 -20 7 -20 20 0 13
-7 20 -20 20 l-20 0 0 40 0 40 -20 0 -20 0 0 40 0 40 -20 0 c-13 0 -20 7 -20
20 0 13 -7 20 -20 20 l-20 0 0 40 0 40 -20 0 c-13 0 -20 7 -20 20 0 13 -7 20
-20 20 l-20 0 0 40 0 40 -20 0 c-13 0 -20 7 -20 20 0 13 -7 20 -20 20 l-20 0
0 40 0 40 -20 0 c-13 0 -20 7 -20 20 0 13 -7 20 -20 20 l-20 0 0 40 0 40 -20
0 -20 0 0 40 0 40 -20 0 c-13 0 -20 7 -20 20 0 13 -7 20 -20 20 l-20 0 0 40 0
40 -20 0 c-13 0 -20 7 -20 20 0 13 -7 20 -20 20 l-20 0 0 40 0 40 -20 0 c-13
0 -20 7 -20 20 0 13 -7 20 -20 20 l-20 0 0 40 0 40 -20 0 c-13 0 -20 7 -20 20
0 13 -7 20 -20 20 l-20 0 0 40 0 40 -20 0 -20 0 0 40 0 40 -20 0 c-13 0 -20 7
-20 20 0 13 -7 20 -20 20 l-20 0 0 40 0 40 -20 0 c-13 0 -20 7 -20 20 0 13 -7
20 -20 20 l-20 0 0 40 0 40 -20 0 c-13 0 -20 7 -20 20 0 13 -7 20 -20 20 l-20
0 0 40 0 40 -20 0 c-13 0 -20 7 -20 20 0 13 -7 20 -20 20 l-20 0 0 40 0 40
-20 0 -20 0 0 40 0 40 -20 0 c-13 0 -20 7 -20 20 0 13 -7 20 -20 20 l-20 0 0
40 0 40 -20 0 c-13 0 -20 7 -20 20 0 13 -7 20 -20 20 l-20 0 0 40 0 40 -20 0
c-13 0 -20 7 -20 20 0 13 -7 20 -20 20 l-20 0 0 40 0 40 -20 0 c-13 0 -20 7
-20 20 0 13 -7 20 -20 20 l-20 0 0 40 0 40 -20 0 -20 0 0 60 0 60 60 0 60 0 0
20 c0 13 7 20 20 20 l20 0 0 60 0 60 20 0 20 0 0 60 0 60 20 0 20 0 0 40 0 40
20 0 20 0 0 60 0 60 20 0 20 0 0 60 0 60 20 0 20 0 0 40 0 40 20 0 20 0 0 40
0 40 20 0 20 0 0 40 0 40 20 0 20 0 0 40 0 40 20 0 20 0 0 40 0 40 20 0 20 0
0 40 0 40 20 0 20 0 0 40 0 40 20 0 c13 0 20 7 20 20 0 13 7 20 20 20 l20 0 0
40 0 40 20 0 c13 0 20 7 20 20 0 13 7 20 20 20 l20 0 0 40 0 40 20 0 c13 0 20
7 20 20 0 13 7 20 20 20 13 0 20 7 20 20 0 13 7 20 20 20 l20 0 0 40 0 40 20
0 c13 0 20 7 20 20 0 13 7 20 20 20 13 0 20 7 20 20 0 13 7 20 20 20 13 0 20
7 20 20 0 13 7 20 20 20 13 0 20 7 20 20 0 13 7 20 20 20 13 0 20 7 20 20 0
13 7 20 20 20 13 0 20 7 20 20 0 13 7 20 20 20 13 0 20 7 20 20 0 13 7 20 20
20 13 0 20 7 20 20 0 13 7 20 20 20 13 0 20 7 20 20 0 13 7 20 20 20 13 0 20
7 20 20 l0 20 40 0 40 0 0 20 c0 13 7 20 20 20 13 0 20 7 20 20 0 13 7 20 20
20 13 0 20 7 20 20 l0 20 40 0 40 0 0 20 0 20 40 0 40 0 0 20 0 20 40 0 40 0
0 20 0 20 40 0 40 0 0 20 0 20 40 0 40 0 0 20 0 20 60 0 60 0 0 20 0 20 80 0
80 0 0 20 0 20 140 0 140 0 0 20 0 20 100 0 100 0 0 -20 0 -20 200 0 200 0 0
-20 0 -20 100 0 100 0 0 -20 0 -20 80 0 80 0 0 -20 0 -20 60 0 60 0 0 -20 0
-20 40 0 40 0 0 -20 0 -20 60 0 60 0 0 -20 0 -20 40 0 40 0 0 -20 0 -20 40 0
40 0 0 -20 0 -20 40 0 40 0 0 -20 0 -20 40 0 40 0 0 -20 c0 -13 7 -20 20 -20
13 0 20 -7 20 -20 l0 -20 40 0 40 0 0 -20 c0 -13 7 -20 20 -20 13 0 20 -7 20
-20 0 -13 7 -20 20 -20 13 0 20 -7 20 -20 l0 -20 40 0 40 0 0 -20 c0 -13 7
-20 20 -20 13 0 20 -7 20 -20 0 -13 7 -20 20 -20 13 0 20 -7 20 -20 0 -13 7
-20 20 -20 13 0 20 -7 20 -20 0 -13 7 -20 20 -20 13 0 20 -7 20 -20 0 -13 7
-20 20 -20 13 0 20 -7 20 -20 0 -13 7 -20 20 -20 13 0 20 -7 20 -20 0 -13 7
-20 20 -20 13 0 20 -7 20 -20 0 -13 7 -20 20 -20 13 0 20 -7 20 -20 0 -13 7
-20 20 -20 13 0 20 -7 20 -20 0 -13 7 -20 20 -20 13 0 20 -7 20 -20 0 -13 7
-20 20 -20 13 0 20 -7 20 -20 0 -13 7 -20 20 -20 13 0 20 -7 20 -20 0 -13 7
-20 20 -20 l20 0 0 -40 0 -40 20 0 c13 0 20 -7 20 -20 0 -13 7 -20 20 -20 13
0 20 -7 20 -20 0 -13 7 -20 20 -20 13 0 20 -7 20 -20 0 -13 7 -20 20 -20 l20
0 0 -40 0 -40 20 0 20 0 0 -40 0 -40 20 0 c13 0 20 -7 20 -20 0 -13 7 -20 20
-20 l20 0 0 -40 0 -40 20 0 20 0 0 -40 0 -40 20 0 c13 0 20 -7 20 -20 0 -13 7
-20 20 -20 l20 0 0 -40 0 -40 20 0 20 0 0 -40 0 -40 20 0 20 0 0 -40 0 -40 20
0 20 0 0 -40 0 -40 20 0 20 0 0 -40 0 -40 20 0 20 0 0 -60 0 -60 20 0 20 0 0
-40 0 -40 20 0 20 0 0 -60 0 -60 20 0 20 0 0 -40 0 -40 20 0 20 0 0 -80 0 -80
20 0 20 0 0 -60 0 -60 20 0 20 0 0 -40 0 -40 20 0 20 0 0 -100 0 -100 20 0 20
0 0 -60 0 -60 20 0 c13 0 20 -7 20 -20 l0 -20 120 0 120 0 0 1580 0 1580 -120
0 -120 0 0 -20 c0 -13 -7 -20 -20 -20 -13 0 -20 -7 -20 -20 0 -13 -7 -20 -20
-20 -13 0 -20 -7 -20 -20 l0 -20 -40 0 -40 0 0 -20 c0 -13 -7 -20 -20 -20 -13
0 -20 -7 -20 -20 l0 -20 -60 0 -60 0 0 -20 0 -20 -140 0 -140 0 0 -20 0 -20
-60 0 -60 0 0 20 0 20 -140 0 -140 0 0 20 0 20 -60 0 -60 0 0 20 0 20 -40 0
-40 0 0 20 0 20 -60 0 -60 0 0 20 c0 13 -7 20 -20 20 -13 0 -20 7 -20 20 l0
20 -40 0 -40 0 0 20 0 20 -40 0 -40 0 0 20 0 20 -40 0 -40 0 0 20 0 20 -40 0
-40 0 0 20 0 20 -60 0 -60 0 0 20 0 20 -40 0 -40 0 0 20 0 20 -60 0 -60 0 0
20 0 20 -60 0 -60 0 0 20 0 20 -80 0 -80 0 0 20 0 20 -60 0 -60 0 0 20 0 20
-120 0 -120 0 0 20 0 20 -220 0 -220 0 0 20 0 20 -160 0 -160 0 0 -20z m-2600
-5080 c0 -13 7 -20 20 -20 l20 0 0 -60 0 -60 -60 0 -60 0 0 20 c0 13 -7 20
-20 20 l-20 0 0 60 0 60 60 0 60 0 0 -20z m120 -220 l0 -40 20 0 c13 0 20 -7
20 -20 0 -13 7 -20 20 -20 l20 0 0 -40 0 -40 20 0 c13 0 20 -7 20 -20 0 -13 7
-20 20 -20 l20 0 0 -40 0 -40 20 0 c13 0 20 -7 20 -20 0 -13 7 -20 20 -20 l20
0 0 -40 0 -40 20 0 c13 0 20 -7 20 -20 0 -13 7 -20 20 -20 l20 0 0 -40 0 -40
20 0 20 0 0 -40 0 -40 20 0 c13 0 20 -7 20 -20 0 -13 7 -20 20 -20 l20 0 0
-40 0 -40 20 0 c13 0 20 -7 20 -20 0 -13 7 -20 20 -20 l20 0 0 -40 0 -40 20 0
c13 0 20 -7 20 -20 0 -13 7 -20 20 -20 l20 0 0 -40 0 -40 20 0 c13 0 20 -7 20
-20 0 -13 7 -20 20 -20 l20 0 0 -40 0 -40 20 0 20 0 0 -40 0 -40 20 0 c13 0
20 -7 20 -20 0 -13 7 -20 20 -20 l20 0 0 -40 0 -40 20 0 c13 0 20 -7 20 -20 0
-13 7 -20 20 -20 l20 0 0 -40 0 -40 20 0 c13 0 20 -7 20 -20 0 -13 7 -20 20
-20 l20 0 0 -40 0 -40 20 0 c13 0 20 -7 20 -20 0 -13 7 -20 20 -20 l20 0 0
-40 0 -40 20 0 c13 0 20 -7 20 -20 0 -13 7 -20 20 -20 l20 0 0 -40 0 -40 20 0
c13 0 20 -7 20 -20 0 -13 7 -20 20 -20 l20 0 0 -40 0 -40 20 0 c13 0 20 -7 20
-20 0 -13 7 -20 20 -20 l20 0 0 -40 0 -40 20 0 20 0 0 -40 0 -40 20 0 c13 0
20 -7 20 -20 0 -13 7 -20 20 -20 l20 0 0 -40 0 -40 20 0 c13 0 20 -7 20 -20 0
-13 7 -20 20 -20 l20 0 0 -40 0 -40 20 0 c13 0 20 -7 20 -20 0 -13 7 -20 20
-20 l20 0 0 -40 0 -40 20 0 c13 0 20 -7 20 -20 0 -13 7 -20 20 -20 l20 0 0
-40 0 -40 20 0 20 0 0 -40 0 -40 20 0 c13 0 20 -7 20 -20 0 -13 7 -20 20 -20
l20 0 0 -40 0 -40 20 0 c13 0 20 -7 20 -20 0 -13 7 -20 20 -20 l20 0 0 -40 0
-40 20 0 c13 0 20 -7 20 -20 0 -13 7 -20 20 -20 l20 0 0 -40 0 -40 20 0 c13 0
20 -7 20 -20 0 -13 7 -20 20 -20 l20 0 0 -40 0 -40 20 0 20 0 0 -40 0 -40 20
0 c13 0 20 -7 20 -20 0 -13 7 -20 20 -20 l20 0 0 -40 0 -40 20 0 c13 0 20 -7
20 -20 0 -13 7 -20 20 -20 l20 0 0 -40 0 -40 20 0 c13 0 20 -7 20 -20 0 -13 7
-20 20 -20 l20 0 0 -40 0 -40 20 0 c13 0 20 -7 20 -20 0 -13 7 -20 20 -20 l20
0 0 -40 0 -40 20 0 c13 0 20 -7 20 -20 0 -13 7 -20 20 -20 l20 0 0 -40 0 -40
20 0 c13 0 20 -7 20 -20 0 -13 7 -20 20 -20 l20 0 0 -40 0 -40 20 0 c13 0 20
-7 20 -20 0 -13 7 -20 20 -20 l20 0 0 -40 0 -40 20 0 20 0 0 -40 0 -40 20 0
c13 0 20 -7 20 -20 0 -13 7 -20 20 -20 l20 0 0 -40 0 -40 20 0 c13 0 20 -7 20
-20 0 -13 7 -20 20 -20 l20 0 0 -40 0 -40 20 0 c13 0 20 -7 20 -20 0 -13 7
-20 20 -20 l20 0 0 -40 0 -40 20 0 c13 0 20 -7 20 -20 0 -13 7 -20 20 -20 l20
0 0 -40 0 -40 20 0 20 0 0 -40 0 -40 20 0 c13 0 20 -7 20 -20 0 -13 7 -20 20
-20 13 0 20 -7 20 -20 0 -13 7 -20 20 -20 13 0 20 -7 20 -20 0 -13 7 -20 20
-20 l20 0 0 -60 0 -60 -80 0 -80 0 0 -20 0 -20 -160 0 -160 0 0 -20 0 -20
-140 0 -140 0 0 20 0 20 -160 0 -160 0 0 20 0 20 -80 0 -80 0 0 20 0 20 -40 0
-40 0 0 20 0 20 -60 0 -60 0 0 20 0 20 -40 0 -40 0 0 20 0 20 -40 0 -40 0 0
20 0 20 -40 0 -40 0 0 20 c0 13 -7 20 -20 20 -13 0 -20 7 -20 20 l0 20 -40 0
-40 0 0 20 c0 13 -7 20 -20 20 -13 0 -20 7 -20 20 0 13 -7 20 -20 20 -13 0
-20 7 -20 20 l0 20 -40 0 -40 0 0 20 c0 13 -7 20 -20 20 -13 0 -20 7 -20 20 0
13 -7 20 -20 20 -13 0 -20 7 -20 20 0 13 -7 20 -20 20 -13 0 -20 7 -20 20 0
13 -7 20 -20 20 -13 0 -20 7 -20 20 0 13 -7 20 -20 20 -13 0 -20 7 -20 20 0
13 -7 20 -20 20 -13 0 -20 7 -20 20 0 13 -7 20 -20 20 -13 0 -20 7 -20 20 0
13 -7 20 -20 20 l-20 0 0 40 0 40 -20 0 c-13 0 -20 7 -20 20 0 13 -7 20 -20
20 -13 0 -20 7 -20 20 0 13 -7 20 -20 20 l-20 0 0 40 0 40 -20 0 c-13 0 -20 7
-20 20 0 13 -7 20 -20 20 l-20 0 0 40 0 40 -20 0 -20 0 0 40 0 40 -20 0 c-13
0 -20 7 -20 20 0 13 -7 20 -20 20 l-20 0 0 40 0 40 -20 0 -20 0 0 40 0 40 -20
0 -20 0 0 40 0 40 -20 0 -20 0 0 40 0 40 -20 0 -20 0 0 60 0 60 -20 0 -20 0 0
40 0 40 -20 0 -20 0 0 40 0 40 -20 0 -20 0 0 60 0 60 -20 0 -20 0 0 60 0 60
-20 0 -20 0 0 60 0 60 -20 0 -20 0 0 80 0 80 -20 0 -20 0 0 80 0 80 -20 0 -20
0 0 80 0 80 -20 0 -20 0 0 100 0 100 -20 0 -20 0 0 120 0 120 -20 0 -20 0 0
120 0 120 -20 0 -20 0 0 180 0 180 -20 0 -20 0 0 640 0 640 60 0 60 0 0 -40z"/>
<path d="M12280 8940 c0 -13 7 -20 20 -20 13 0 20 -7 20 -20 0 -13 7 -20 20
-20 13 0 20 -7 20 -20 0 -13 7 -20 20 -20 13 0 20 -7 20 -20 0 -13 7 -20 20
-20 13 0 20 -7 20 -20 0 -13 7 -20 20 -20 13 0 20 -7 20 -20 0 -13 7 -20 20
-20 13 0 20 -7 20 -20 0 -13 7 -20 20 -20 l20 0 0 -40 0 -40 20 0 20 0 0 -40
0 -40 20 0 c13 0 20 -7 20 -20 0 -13 7 -20 20 -20 13 0 20 7 20 20 0 13 -7 20
-20 20 l-20 0 0 40 0 40 -20 0 -20 0 0 40 0 40 -20 0 c-13 0 -20 7 -20 20 0
13 -7 20 -20 20 -13 0 -20 7 -20 20 0 13 -7 20 -20 20 -13 0 -20 7 -20 20 0
13 -7 20 -20 20 l-20 0 0 40 0 40 -20 0 c-13 0 -20 7 -20 20 l0 20 -40 0 -40
0 0 20 c0 13 -7 20 -20 20 -13 0 -20 -7 -20 -20z"/>
<path d="M31600 8940 l0 -20 60 0 60 0 0 20 0 20 -60 0 -60 0 0 -20z"/>
<path d="M17200 8840 l0 -80 60 0 60 0 0 -20 0 -20 80 0 80 0 0 -20 0 -20 100
0 100 0 0 -20 0 -20 40 0 40 0 0 -20 c0 -13 7 -20 20 -20 13 0 20 -7 20 -20 0
-13 7 -20 20 -20 l20 0 0 -40 0 -40 20 0 20 0 0 -40 0 -40 20 0 20 0 0 -60 0
-60 20 0 20 0 0 60 0 60 -20 0 -20 0 0 40 0 40 -20 0 -20 0 0 40 0 40 -20 0
c-13 0 -20 7 -20 20 0 13 -7 20 -20 20 -13 0 -20 7 -20 20 0 13 -7 20 -20 20
-13 0 -20 7 -20 20 l0 20 -40 0 -40 0 0 20 0 20 -100 0 -100 0 0 20 0 20 -80
0 -80 0 0 20 0 20 -40 0 -40 0 0 40 0 40 40 0 40 0 0 20 0 20 -60 0 -60 0 0
-80z"/>
<path d="M19840 8900 l0 -20 40 0 40 0 0 -40 0 -40 -40 0 -40 0 0 -20 0 -20
60 0 60 0 0 20 c0 13 7 20 20 20 13 0 20 7 20 20 0 13 -7 20 -20 20 l-20 0 0
40 0 40 -60 0 -60 0 0 -20z"/>
<path d="M21960 8900 l0 -20 40 0 40 0 0 20 0 20 -40 0 -40 0 0 -20z"/>
<path d="M26280 8860 l0 -60 20 0 c13 0 20 -7 20 -20 l0 -20 80 0 80 0 0 -20
0 -20 100 0 100 0 0 -20 0 -20 60 0 60 0 0 -20 c0 -13 7 -20 20 -20 13 0 20 7
20 20 0 13 -7 20 -20 20 -13 0 -20 7 -20 20 l0 20 -60 0 -60 0 0 20 0 20 -100
0 -100 0 0 20 0 20 -80 0 -80 0 0 40 0 40 40 0 40 0 0 20 0 20 -60 0 -60 0 0
-60z"/>
<path d="M28880 8900 l0 -20 60 0 60 0 0 20 0 20 -60 0 -60 0 0 -20z"/>
<path d="M31520 8840 l0 -80 60 0 60 0 0 -20 0 -20 120 0 120 0 0 -20 0 -20
80 0 80 0 0 -20 0 -20 40 0 40 0 0 -20 c0 -13 7 -20 20 -20 13 0 20 -7 20 -20
0 -13 7 -20 20 -20 l20 0 0 -40 0 -40 20 0 20 0 0 -40 0 -40 20 0 20 0 0 40 0
40 -20 0 -20 0 0 40 0 40 -20 0 c-13 0 -20 7 -20 20 0 13 -7 20 -20 20 -13 0
-20 7 -20 20 0 13 -7 20 -20 20 -13 0 -20 7 -20 20 l0 20 -40 0 -40 0 0 20 0
20 -80 0 -80 0 0 20 0 20 -120 0 -120 0 0 20 0 20 -40 0 -40 0 0 60 0 60 -20
0 -20 0 0 -80z"/>
<path d="M33400 8900 l0 -20 40 0 40 0 0 -40 0 -40 -40 0 -40 0 0 -20 0 -20
40 0 40 0 0 20 c0 13 7 20 20 20 l20 0 0 60 0 60 -60 0 -60 0 0 -20z"/>
<path d="M680 8860 l0 -20 580 0 580 0 0 20 0 20 -580 0 -580 0 0 -20z"/>
<path d="M2240 8860 l0 -20 40 0 40 0 0 -20 c0 -13 7 -20 20 -20 13 0 20 -7
20 -20 0 -13 7 -20 20 -20 l20 0 0 -40 0 -40 20 0 c13 0 20 -7 20 -20 0 -13 7
-20 20 -20 13 0 20 -7 20 -20 0 -13 7 -20 20 -20 13 0 20 -7 20 -20 l0 -20 40
0 40 0 0 -20 c0 -13 7 -20 20 -20 13 0 20 -7 20 -20 0 -13 7 -20 20 -20 13 0
20 -7 20 -20 0 -13 7 -20 20 -20 13 0 20 -7 20 -20 0 -13 7 -20 20 -20 13 0
20 -7 20 -20 0 -13 7 -20 20 -20 13 0 20 -7 20 -20 0 -13 7 -20 20 -20 13 0
20 -7 20 -20 0 -13 7 -20 20 -20 13 0 20 -7 20 -20 0 -13 7 -20 20 -20 13 0
20 -7 20 -20 0 -13 7 -20 20 -20 13 0 20 -7 20 -20 0 -13 7 -20 20 -20 13 0
20 -7 20 -20 0 -13 7 -20 20 -20 13 0 20 -7 20 -20 0 -13 7 -20 20 -20 13 0
20 -7 20 -20 0 -13 7 -20 20 -20 13 0 20 -7 20 -20 0 -13 7 -20 20 -20 13 0
20 -7 20 -20 0 -13 7 -20 20 -20 l20 0 0 40 0 40 -40 0 -40 0 0 40 0 40 -40 0
-40 0 0 20 c0 13 -7 20 -20 20 -13 0 -20 7 -20 20 0 13 -7 20 -20 20 l-20 0 0
40 0 40 -40 0 -40 0 0 20 c0 13 -7 20 -20 20 -13 0 -20 7 -20 20 0 13 -7 20
-20 20 -13 0 -20 7 -20 20 0 13 -7 20 -20 20 -13 0 -20 7 -20 20 0 13 -7 20
-20 20 -13 0 -20 7 -20 20 0 13 -7 20 -20 20 -13 0 -20 7 -20 20 0 13 -7 20
-20 20 -13 0 -20 7 -20 20 0 13 -7 20 -20 20 -13 0 -20 7 -20 20 0 13 -7 20
-20 20 -13 0 -20 7 -20 20 l0 20 -40 0 -40 0 0 40 0 40 -20 0 c-13 0 -20 7
-20 20 0 13 -7 20 -20 20 -13 0 -20 7 -20 20 0 13 -7 20 -20 20 -13 0 -20 7
-20 20 0 13 -7 20 -20 20 -13 0 -20 7 -20 20 l0 20 -40 0 -40 0 0 -20z"/>
<path d="M6560 8860 l0 -20 580 0 580 0 0 -60 0 -60 -80 0 -80 0 0 -20 0 -20
80 0 80 0 0 20 c0 13 7 20 20 20 l20 0 0 80 0 80 -600 0 -600 0 0 -20z"/>
<path d="M200 8820 c0 -13 -7 -20 -20 -20 l-20 0 0 -40 0 -40 20 0 c13 0 20
-7 20 -20 0 -13 7 -20 20 -20 13 0 20 -7 20 -20 l0 -20 100 0 100 0 0 -20 0
-20 80 0 80 0 0 20 0 20 -80 0 -80 0 0 20 0 20 -80 0 -80 0 0 20 0 20 -40 0
-40 0 0 40 0 40 200 0 200 0 0 20 0 20 -200 0 -200 0 0 -20z"/>
<path d="M5800 8820 c0 -13 -7 -20 -20 -20 -13 0 -20 -7 -20 -20 0 -13 7 -20
20 -20 13 0 20 -7 20 -20 l0 -20 60 0 60 0 0 20 0 20 -60 0 -60 0 0 20 0 20
140 0 140 0 0 20 0 20 -140 0 -140 0 0 -20z"/>
<path d="M12160 8820 c0 -13 -7 -20 -20 -20 l-20 0 0 -40 0 -40 20 0 20 0 0
40 0 40 20 0 c13 0 20 7 20 20 0 13 -7 20 -20 20 -13 0 -20 -7 -20 -20z"/>
<path d="M29000 8820 l0 -20 -60 0 -60 0 0 -20 0 -20 -100 0 -100 0 0 -20 0
-20 -60 0 -60 0 0 -20 0 -20 -40 0 -40 0 0 -20 c0 -13 -7 -20 -20 -20 -13 0
-20 -7 -20 -20 0 -13 -7 -20 -20 -20 l-20 0 0 -40 0 -40 -20 0 -20 0 0 -80 0
-80 -20 0 -20 0 0 -1240 0 -1240 20 0 20 0 0 1240 0 1240 20 0 20 0 0 80 0 80
20 0 20 0 0 40 0 40 60 0 60 0 0 40 0 40 60 0 60 0 0 20 0 20 100 0 100 0 0
20 0 20 60 0 60 0 0 20 c0 13 7 20 20 20 13 0 20 7 20 20 0 13 -7 20 -20 20
-13 0 -20 -7 -20 -20z"/>
<path d="M21960 8780 l0 -20 60 0 60 0 0 -20 0 -20 120 0 120 0 0 -20 0 -20
80 0 80 0 0 -20 c0 -13 7 -20 20 -20 13 0 20 -7 20 -20 0 -13 7 -20 20 -20
l20 0 0 -40 0 -40 20 0 20 0 0 -1120 0 -1120 20 0 20 0 0 1120 0 1120 -20 0
-20 0 0 40 0 40 -20 0 c-13 0 -20 7 -20 20 0 13 -7 20 -20 20 -13 0 -20 7 -20
20 0 13 -7 20 -20 20 -13 0 -20 7 -20 20 l0 20 -80 0 -80 0 0 20 0 20 -120 0
-120 0 0 20 0 20 -60 0 -60 0 0 -20z"/>
<path d="M19600 8740 l0 -20 -60 0 -60 0 0 -20 c0 -13 -7 -20 -20 -20 -13 0
-20 -7 -20 -20 l0 -20 -40 0 -40 0 0 -20 c0 -13 -7 -20 -20 -20 l-20 0 0 -40
0 -40 -20 0 -20 0 0 -60 0 -60 20 0 20 0 0 60 0 60 20 0 20 0 0 40 0 40 60 0
60 0 0 40 0 40 60 0 60 0 0 20 0 20 100 0 100 0 0 20 0 20 -100 0 -100 0 0
-20z"/>
<path d="M24360 8740 l0 -20 -80 0 -80 0 0 -20 c0 -13 -7 -20 -20 -20 -13 0
-20 -7 -20 -20 l0 -20 -40 0 -40 0 0 -20 c0 -13 -7 -20 -20 -20 l-20 0 0 -40
0 -40 -20 0 c-13 0 -20 -7 -20 -20 0 -13 -7 -20 -20 -20 l-20 0 0 -40 0 -40
20 0 20 0 0 40 0 40 20 0 c13 0 20 7 20 20 0 13 7 20 20 20 l20 0 0 40 0 40
40 0 40 0 0 20 c0 13 7 20 20 20 13 0 20 7 20 20 l0 20 80 0 80 0 0 20 0 20
80 0 80 0 0 20 0 20 -80 0 -80 0 0 -20z"/>
<path d="M33200 8740 l0 -20 -80 0 -80 0 0 -20 0 -20 -40 0 -40 0 0 -20 c0
-13 -7 -20 -20 -20 -13 0 -20 -7 -20 -20 0 -13 -7 -20 -20 -20 -13 0 -20 -7
-20 -20 0 -13 -7 -20 -20 -20 -13 0 -20 -7 -20 -20 0 -13 -7 -20 -20 -20 l-20
0 0 -40 0 -40 20 0 20 0 0 40 0 40 20 0 c13 0 20 7 20 20 0 13 7 20 20 20 13
0 20 7 20 20 0 13 7 20 20 20 13 0 20 7 20 20 l0 20 40 0 40 0 0 20 0 20 80 0
80 0 0 20 0 20 80 0 80 0 0 20 0 20 -80 0 -80 0 0 -20z"/>
<path d="M5960 8700 l0 -20 80 0 80 0 0 -20 0 -20 40 0 40 0 0 20 0 20 -40 0
-40 0 0 20 0 20 -80 0 -80 0 0 -20z"/>
<path d="M7400 8660 l0 -20 -40 0 -40 0 0 -20 0 -20 40 0 40 0 0 20 0 20 60 0
60 0 0 20 0 20 -60 0 -60 0 0 -20z"/>
<path d="M12080 8660 c0 -13 -7 -20 -20 -20 l-20 0 0 -40 0 -40 -20 0 c-13 0
-20 -7 -20 -20 0 -13 7 -20 20 -20 13 0 20 7 20 20 0 13 7 20 20 20 l20 0 0
40 0 40 20 0 c13 0 20 7 20 20 0 13 -7 20 -20 20 -13 0 -20 -7 -20 -20z"/>
<path d="M6240 8620 l0 -20 40 0 40 0 0 -20 c0 -13 7 -20 20 -20 13 0 20 -7
20 -20 0 -13 7 -20 20 -20 13 0 20 -7 20 -20 0 -13 7 -20 20 -20 l20 0 0 -40
0 -40 20 0 20 0 0 -60 0 -60 20 0 20 0 0 60 0 60 -20 0 -20 0 0 40 0 40 -20 0
c-13 0 -20 7 -20 20 0 13 -7 20 -20 20 -13 0 -20 7 -20 20 0 13 -7 20 -20 20
-13 0 -20 7 -20 20 0 13 -7 20 -20 20 -13 0 -20 7 -20 20 l0 20 -40 0 -40 0 0
-20z"/>
<path d="M26880 8600 l0 -40 20 0 c13 0 20 -7 20 -20 0 -13 7 -20 20 -20 13 0
20 7 20 20 0 13 -7 20 -20 20 l-20 0 0 40 0 40 -20 0 -20 0 0 -40z"/>
<path d="M640 8580 l0 -20 40 0 40 0 0 20 0 20 -40 0 -40 0 0 -20z"/>
<path d="M760 8540 l0 -20 40 0 40 0 0 -20 0 -20 40 0 40 0 0 -20 c0 -13 7
-20 20 -20 13 0 20 -7 20 -20 0 -13 7 -20 20 -20 13 0 20 -7 20 -20 0 -13 7
-20 20 -20 l20 0 0 -40 0 -40 20 0 20 0 0 -40 0 -40 20 0 20 0 0 40 0 40 -20
0 -20 0 0 40 0 40 -20 0 c-13 0 -20 7 -20 20 0 13 -7 20 -20 20 -13 0 -20 7
-20 20 0 13 -7 20 -20 20 -13 0 -20 7 -20 20 0 13 -7 20 -20 20 -13 0 -20 7
-20 20 l0 20 -40 0 -40 0 0 20 0 20 -40 0 -40 0 0 -20z"/>
<path d="M7080 8500 c0 -13 -7 -20 -20 -20 -13 0 -20 -7 -20 -20 0 -13 7 -20
20 -20 13 0 20 7 20 20 0 13 7 20 20 20 13 0 20 7 20 20 0 13 -7 20 -20 20
-13 0 -20 -7 -20 -20z"/>
<path d="M26960 8440 l0 -40 20 0 20 0 0 40 0 40 -20 0 -20 0 0 -40z"/>
<path d="M12680 8420 c0 -13 7 -20 20 -20 l20 0 0 -40 0 -40 20 0 c13 0 20 -7
20 -20 0 -13 7 -20 20 -20 13 0 20 7 20 20 0 13 -7 20 -20 20 l-20 0 0 40 0
40 -20 0 c-13 0 -20 7 -20 20 0 13 -7 20 -20 20 -13 0 -20 -7 -20 -20z"/>
<path d="M7000 8380 c0 -13 -7 -20 -20 -20 l-20 0 0 -40 0 -40 -20 0 -20 0 0
-2460 0 -2460 20 0 20 0 0 2460 0 2460 20 0 20 0 0 40 0 40 20 0 c13 0 20 7
20 20 0 13 -7 20 -20 20 -13 0 -20 -7 -20 -20z"/>
<path d="M11920 8380 c0 -13 -7 -20 -20 -20 l-20 0 0 -40 0 -40 20 0 20 0 0
40 0 40 20 0 c13 0 20 7 20 20 0 13 -7 20 -20 20 -13 0 -20 -7 -20 -20z"/>
<path d="M32760 8340 l0 -60 20 0 20 0 0 60 0 60 -20 0 -20 0 0 -60z"/>
<path d="M19240 7320 l0 -1040 20 0 20 0 0 1040 0 1040 -20 0 -20 0 0 -1040z"/>
<path d="M23920 8320 l0 -40 20 0 20 0 0 40 0 40 -20 0 -20 0 0 -40z"/>
<path d="M32280 7700 l0 -660 20 0 20 0 0 660 0 660 -20 0 -20 0 0 -660z"/>
<path d="M27000 8120 l0 -200 20 0 20 0 0 200 0 200 -20 0 -20 0 0 -200z"/>
<path d="M6520 8000 l0 -240 20 0 20 0 0 240 0 240 -20 0 -20 0 0 -240z"/>
<path d="M11840 8220 c0 -13 -7 -20 -20 -20 l-20 0 0 -40 0 -40 -20 0 -20 0 0
-40 0 -40 -20 0 c-13 0 -20 -7 -20 -20 0 -13 7 -20 20 -20 13 0 20 7 20 20 0
13 7 20 20 20 l20 0 0 40 0 40 20 0 20 0 0 40 0 40 20 0 c13 0 20 7 20 20 0
13 -7 20 -20 20 -13 0 -20 -7 -20 -20z"/>
<path d="M12800 8220 c0 -13 7 -20 20 -20 l20 0 0 -40 0 -40 20 0 20 0 0 -40
0 -40 20 0 c13 0 20 -7 20 -20 0 -13 7 -20 20 -20 l20 0 0 -40 0 -40 20 0 c13
0 20 -7 20 -20 0 -13 7 -20 20 -20 l20 0 0 -40 0 -40 20 0 20 0 0 -40 0 -40
20 0 20 0 0 -40 0 -40 20 0 c13 0 20 -7 20 -20 0 -13 7 -20 20 -20 l20 0 0
-40 0 -40 20 0 20 0 0 -40 0 -40 20 0 20 0 0 -40 0 -40 20 0 c13 0 20 -7 20
-20 0 -13 7 -20 20 -20 l20 0 0 -40 0 -40 20 0 c13 0 20 -7 20 -20 0 -13 7
-20 20 -20 l20 0 0 -40 0 -40 20 0 20 0 0 -40 0 -40 20 0 c13 0 20 -7 20 -20
0 -13 7 -20 20 -20 13 0 20 7 20 20 0 13 -7 20 -20 20 l-20 0 0 40 0 40 -20 0
-20 0 0 40 0 40 -20 0 c-13 0 -20 7 -20 20 0 13 -7 20 -20 20 l-20 0 0 40 0
40 -20 0 c-13 0 -20 7 -20 20 0 13 -7 20 -20 20 l-20 0 0 60 0 60 -20 0 c-13
0 -20 7 -20 20 0 13 -7 20 -20 20 l-20 0 0 40 0 40 -20 0 c-13 0 -20 7 -20 20
0 13 -7 20 -20 20 l-20 0 0 40 0 40 -20 0 -20 0 0 40 0 40 -20 0 -20 0 0 40 0
40 -20 0 c-13 0 -20 7 -20 20 0 13 -7 20 -20 20 l-20 0 0 40 0 40 -20 0 c-13
0 -20 7 -20 20 0 13 -7 20 -20 20 l-20 0 0 40 0 40 -20 0 -20 0 0 40 0 40 -20
0 c-13 0 -20 7 -20 20 0 13 -7 20 -20 20 -13 0 -20 -7 -20 -20z"/>
<path d="M17960 7900 l0 -340 20 0 20 0 0 340 0 340 -20 0 -20 0 0 -340z"/>
<path d="M23880 7820 l0 -380 20 0 20 0 0 380 0 380 -20 0 -20 0 0 -380z"/>
<path d="M32720 7380 l0 -820 20 0 20 0 0 820 0 820 -20 0 -20 0 0 -820z"/>
<path d="M3320 7860 c0 -13 7 -20 20 -20 13 0 20 -7 20 -20 0 -13 7 -20 20
-20 13 0 20 -7 20 -20 0 -13 7 -20 20 -20 13 0 20 -7 20 -20 0 -13 7 -20 20
-20 13 0 20 -7 20 -20 0 -13 7 -20 20 -20 13 0 20 -7 20 -20 0 -13 7 -20 20
-20 13 0 20 -7 20 -20 0 -13 7 -20 20 -20 13 0 20 -7 20 -20 0 -13 7 -20 20
-20 13 0 20 -7 20 -20 0 -13 7 -20 20 -20 13 0 20 -7 20 -20 0 -13 7 -20 20
-20 13 0 20 -7 20 -20 0 -13 7 -20 20 -20 13 0 20 -7 20 -20 0 -13 7 -20 20
-20 13 0 20 -7 20 -20 0 -13 7 -20 20 -20 13 0 20 -7 20 -20 0 -13 7 -20 20
-20 13 0 20 -7 20 -20 0 -13 7 -20 20 -20 13 0 20 -7 20 -20 l0 -20 40 0 40 0
0 -20 c0 -13 7 -20 20 -20 13 0 20 -7 20 -20 0 -13 7 -20 20 -20 13 0 20 -7
20 -20 0 -13 7 -20 20 -20 13 0 20 -7 20 -20 0 -13 7 -20 20 -20 13 0 20 -7
20 -20 0 -13 7 -20 20 -20 13 0 20 -7 20 -20 0 -13 7 -20 20 -20 13 0 20 -7
20 -20 0 -13 7 -20 20 -20 13 0 20 -7 20 -20 0 -13 7 -20 20 -20 13 0 20 -7
20 -20 0 -13 7 -20 20 -20 13 0 20 -7 20 -20 0 -13 7 -20 20 -20 13 0 20 -7
20 -20 0 -13 7 -20 20 -20 13 0 20 -7 20 -20 0 -13 7 -20 20 -20 13 0 20 -7
20 -20 0 -13 7 -20 20 -20 13 0 20 -7 20 -20 0 -13 7 -20 20 -20 13 0 20 -7
20 -20 0 -13 7 -20 20 -20 13 0 20 -7 20 -20 0 -13 7 -20 20 -20 13 0 20 -7
20 -20 0 -13 7 -20 20 -20 13 0 20 -7 20 -20 0 -13 7 -20 20 -20 13 0 20 -7
20 -20 0 -13 7 -20 20 -20 13 0 20 -7 20 -20 0 -13 7 -20 20 -20 13 0 20 -7
20 -20 l0 -20 40 0 40 0 0 -20 c0 -13 7 -20 20 -20 l20 0 0 -40 0 -40 40 0 40
0 0 -20 c0 -13 7 -20 20 -20 13 0 20 -7 20 -20 0 -13 7 -20 20 -20 13 0 20 -7
20 -20 0 -13 7 -20 20 -20 13 0 20 -7 20 -20 0 -13 7 -20 20 -20 13 0 20 -7
20 -20 0 -13 7 -20 20 -20 13 0 20 -7 20 -20 0 -13 7 -20 20 -20 13 0 20 -7
20 -20 0 -13 7 -20 20 -20 13 0 20 -7 20 -20 0 -13 7 -20 20 -20 13 0 20 -7
20 -20 0 -13 7 -20 20 -20 13 0 20 -7 20 -20 0 -13 7 -20 20 -20 13 0 20 -7
20 -20 0 -13 7 -20 20 -20 13 0 20 -7 20 -20 0 -13 7 -20 20 -20 13 0 20 -7
20 -20 0 -13 7 -20 20 -20 13 0 20 -7 20 -20 0 -13 7 -20 20 -20 13 0 20 -7
20 -20 0 -13 7 -20 20 -20 13 0 20 -7 20 -20 0 -13 7 -20 20 -20 13 0 20 -7
20 -20 0 -13 7 -20 20 -20 13 0 20 -7 20 -20 0 -13 7 -20 20 -20 13 0 20 -7
20 -20 0 -13 7 -20 20 -20 13 0 20 -7 20 -20 0 -13 7 -20 20 -20 13 0 20 -7
20 -20 0 -13 7 -20 20 -20 13 0 20 -7 20 -20 0 -13 7 -20 20 -20 13 0 20 -7
20 -20 0 -13 7 -20 20 -20 13 0 20 -7 20 -20 0 -13 7 -20 20 -20 13 0 20 -7
20 -20 0 -13 7 -20 20 -20 13 0 20 -7 20 -20 0 -13 7 -20 20 -20 13 0 20 -7
20 -20 0 -13 7 -20 20 -20 13 0 20 -7 20 -20 0 -13 7 -20 20 -20 13 0 20 -7
20 -20 0 -13 7 -20 20 -20 13 0 20 -7 20 -20 0 -13 7 -20 20 -20 13 0 20 -7
20 -20 0 -13 7 -20 20 -20 13 0 20 -7 20 -20 0 -13 7 -20 20 -20 13 0 20 -7
20 -20 0 -13 7 -20 20 -20 13 0 20 -7 20 -20 0 -13 7 -20 20 -20 13 0 20 -7
20 -20 0 -13 7 -20 20 -20 13 0 20 -7 20 -20 l0 -20 60 0 60 0 0 120 0 120
-20 0 -20 0 0 -60 0 -60 -60 0 -60 0 0 20 0 20 -40 0 -40 0 0 20 c0 13 -7 20
-20 20 -13 0 -20 7 -20 20 0 13 -7 20 -20 20 -13 0 -20 7 -20 20 0 13 -7 20
-20 20 -13 0 -20 7 -20 20 0 13 -7 20 -20 20 -13 0 -20 7 -20 20 0 13 -7 20
-20 20 -13 0 -20 7 -20 20 0 13 -7 20 -20 20 -13 0 -20 7 -20 20 0 13 -7 20
-20 20 -13 0 -20 7 -20 20 0 13 -7 20 -20 20 -13 0 -20 7 -20 20 0 13 -7 20
-20 20 -13 0 -20 7 -20 20 0 13 -7 20 -20 20 -13 0 -20 7 -20 20 0 13 -7 20
-20 20 -13 0 -20 7 -20 20 0 13 -7 20 -20 20 -13 0 -20 7 -20 20 0 13 -7 20
-20 20 -13 0 -20 7 -20 20 0 13 -7 20 -20 20 -13 0 -20 7 -20 20 0 13 -7 20
-20 20 -13 0 -20 7 -20 20 0 13 -7 20 -20 20 -13 0 -20 7 -20 20 0 13 -7 20
-20 20 -13 0 -20 7 -20 20 0 13 -7 20 -20 20 -13 0 -20 7 -20 20 0 13 -7 20
-20 20 -13 0 -20 7 -20 20 0 13 -7 20 -20 20 -13 0 -20 7 -20 20 0 13 -7 20
-20 20 -13 0 -20 7 -20 20 0 13 -7 20 -20 20 -13 0 -20 7 -20 20 0 13 -7 20
-20 20 -13 0 -20 7 -20 20 0 13 -7 20 -20 20 -13 0 -20 7 -20 20 0 13 -7 20
-20 20 -13 0 -20 7 -20 20 0 13 -7 20 -20 20 -13 0 -20 7 -20 20 0 13 -7 20
-20 20 -13 0 -20 7 -20 20 0 13 -7 20 -20 20 -13 0 -20 7 -20 20 0 13 -7 20
-20 20 -13 0 -20 7 -20 20 0 13 -7 20 -20 20 -13 0 -20 7 -20 20 0 13 -7 20
-20 20 -13 0 -20 7 -20 20 0 13 -7 20 -20 20 -13 0 -20 7 -20 20 0 13 -7 20
-20 20 -13 0 -20 7 -20 20 0 13 -7 20 -20 20 -13 0 -20 7 -20 20 0 13 -7 20
-20 20 -13 0 -20 7 -20 20 0 13 -7 20 -20 20 -13 0 -20 7 -20 20 0 13 -7 20
-20 20 -13 0 -20 7 -20 20 l0 20 -40 0 -40 0 0 20 c0 13 -7 20 -20 20 -13 0
-20 7 -20 20 0 13 -7 20 -20 20 -13 0 -20 7 -20 20 0 13 -7 20 -20 20 -13 0
-20 7 -20 20 0 13 -7 20 -20 20 -13 0 -20 7 -20 20 0 13 -7 20 -20 20 -13 0
-20 7 -20 20 0 13 -7 20 -20 20 -13 0 -20 7 -20 20 0 13 -7 20 -20 20 -13 0
-20 7 -20 20 0 13 -7 20 -20 20 -13 0 -20 7 -20 20 0 13 -7 20 -20 20 -13 0
-20 7 -20 20 0 13 -7 20 -20 20 -13 0 -20 7 -20 20 0 13 -7 20 -20 20 -13 0
-20 7 -20 20 0 13 -7 20 -20 20 -13 0 -20 7 -20 20 0 13 -7 20 -20 20 -13 0
-20 7 -20 20 0 13 -7 20 -20 20 -13 0 -20 7 -20 20 0 13 -7 20 -20 20 -13 0
-20 7 -20 20 0 13 -7 20 -20 20 -13 0 -20 7 -20 20 0 13 -7 20 -20 20 -13 0
-20 7 -20 20 0 13 -7 20 -20 20 -13 0 -20 7 -20 20 0 13 -7 20 -20 20 -13 0
-20 7 -20 20 l0 20 -40 0 -40 0 0 20 c0 13 -7 20 -20 20 -13 0 -20 7 -20 20 0
13 -7 20 -20 20 -13 0 -20 7 -20 20 0 13 -7 20 -20 20 -13 0 -20 7 -20 20 0
13 -7 20 -20 20 -13 0 -20 7 -20 20 0 13 -7 20 -20 20 -13 0 -20 7 -20 20 0
13 -7 20 -20 20 -13 0 -20 7 -20 20 0 13 -7 20 -20 20 -13 0 -20 7 -20 20 0
13 -7 20 -20 20 -13 0 -20 7 -20 20 0 13 -7 20 -20 20 l-20 0 0 80 0 80 -80 0
-80 0 0 20 c0 13 -7 20 -20 20 -13 0 -20 -7 -20 -20z"/>
<path d="M1480 6020 l0 -1820 20 0 20 0 0 1780 0 1780 60 0 60 0 0 20 c0 13
-7 20 -20 20 -13 0 -20 7 -20 20 l0 20 -60 0 -60 0 0 -1820z"/>
<path d="M11600 7780 c0 -13 -7 -20 -20 -20 l-20 0 0 -40 0 -40 -20 0 -20 0 0
-40 0 -40 -20 0 -20 0 0 -40 0 -40 -20 0 c-13 0 -20 -7 -20 -20 0 -13 -7 -20
-20 -20 l-20 0 0 -40 0 -40 -20 0 -20 0 0 -40 0 -40 -20 0 -20 0 0 -40 0 -40
-20 0 -20 0 0 -40 0 -40 -20 0 c-13 0 -20 -7 -20 -20 0 -13 7 -20 20 -20 13 0
20 7 20 20 0 13 7 20 20 20 l20 0 0 40 0 40 20 0 20 0 0 40 0 40 20 0 20 0 0
40 0 40 20 0 20 0 0 40 0 40 20 0 c13 0 20 7 20 20 0 13 7 20 20 20 l20 0 0
40 0 40 20 0 20 0 0 40 0 40 20 0 20 0 0 40 0 40 20 0 c13 0 20 7 20 20 0 13
-7 20 -20 20 -13 0 -20 -7 -20 -20z"/>
<path d="M1680 7720 l0 -40 40 0 40 0 0 -20 c0 -13 7 -20 20 -20 13 0 20 -7
20 -20 0 -13 7 -20 20 -20 13 0 20 -7 20 -20 0 -13 7 -20 20 -20 13 0 20 -7
20 -20 0 -13 7 -20 20 -20 13 0 20 -7 20 -20 0 -13 7 -20 20 -20 13 0 20 -7
20 -20 0 -13 7 -20 20 -20 13 0 20 -7 20 -20 0 -13 7 -20 20 -20 13 0 20 -7
20 -20 0 -13 7 -20 20 -20 13 0 20 -7 20 -20 0 -13 7 -20 20 -20 13 0 20 -7
20 -20 0 -13 7 -20 20 -20 13 0 20 -7 20 -20 0 -13 7 -20 20 -20 13 0 20 -7
20 -20 l0 -20 40 0 40 0 0 -20 c0 -13 7 -20 20 -20 13 0 20 -7 20 -20 0 -13 7
-20 20 -20 13 0 20 -7 20 -20 0 -13 7 -20 20 -20 13 0 20 -7 20 -20 0 -13 7
-20 20 -20 13 0 20 -7 20 -20 0 -13 7 -20 20 -20 13 0 20 -7 20 -20 0 -13 7
-20 20 -20 13 0 20 -7 20 -20 0 -13 7 -20 20 -20 13 0 20 -7 20 -20 0 -13 7
-20 20 -20 13 0 20 -7 20 -20 0 -13 7 -20 20 -20 13 0 20 -7 20 -20 0 -13 7
-20 20 -20 13 0 20 -7 20 -20 0 -13 7 -20 20 -20 13 0 20 -7 20 -20 0 -13 7
-20 20 -20 13 0 20 -7 20 -20 l0 -20 40 0 40 0 0 -40 0 -40 20 0 c13 0 20 -7
20 -20 l0 -20 40 0 40 0 0 -20 c0 -13 7 -20 20 -20 13 0 20 -7 20 -20 0 -13 7
-20 20 -20 13 0 20 -7 20 -20 0 -13 7 -20 20 -20 13 0 20 -7 20 -20 0 -13 7
-20 20 -20 13 0 20 -7 20 -20 0 -13 7 -20 20 -20 13 0 20 -7 20 -20 0 -13 7
-20 20 -20 13 0 20 -7 20 -20 0 -13 7 -20 20 -20 13 0 20 -7 20 -20 0 -13 7
-20 20 -20 13 0 20 -7 20 -20 0 -13 7 -20 20 -20 13 0 20 -7 20 -20 0 -13 7
-20 20 -20 13 0 20 -7 20 -20 0 -13 7 -20 20 -20 13 0 20 -7 20 -20 l0 -20 40
0 40 0 0 -20 c0 -13 7 -20 20 -20 13 0 20 -7 20 -20 0 -13 7 -20 20 -20 13 0
20 -7 20 -20 0 -13 7 -20 20 -20 13 0 20 -7 20 -20 0 -13 7 -20 20 -20 13 0
20 -7 20 -20 0 -13 7 -20 20 -20 13 0 20 -7 20 -20 0 -13 7 -20 20 -20 13 0
20 -7 20 -20 0 -13 7 -20 20 -20 13 0 20 -7 20 -20 0 -13 7 -20 20 -20 13 0
20 7 20 20 0 13 -7 20 -20 20 -13 0 -20 7 -20 20 0 13 -7 20 -20 20 -13 0 -20
7 -20 20 0 13 -7 20 -20 20 -13 0 -20 7 -20 20 0 13 -7 20 -20 20 -13 0 -20 7
-20 20 0 13 -7 20 -20 20 -13 0 -20 7 -20 20 0 13 -7 20 -20 20 -13 0 -20 7
-20 20 0 13 -7 20 -20 20 -13 0 -20 7 -20 20 0 13 -7 20 -20 20 -13 0 -20 7
-20 20 l0 20 -40 0 -40 0 0 20 c0 13 -7 20 -20 20 -13 0 -20 7 -20 20 0 13 -7
20 -20 20 -13 0 -20 7 -20 20 0 13 -7 20 -20 20 -13 0 -20 7 -20 20 0 13 -7
20 -20 20 -13 0 -20 7 -20 20 0 13 -7 20 -20 20 -13 0 -20 7 -20 20 0 13 -7
20 -20 20 -13 0 -20 7 -20 20 0 13 -7 20 -20 20 -13 0 -20 7 -20 20 0 13 -7
20 -20 20 -13 0 -20 7 -20 20 0 13 -7 20 -20 20 -13 0 -20 7 -20 20 0 13 -7
20 -20 20 -13 0 -20 7 -20 20 0 13 -7 20 -20 20 -13 0 -20 7 -20 20 0 13 -7
20 -20 20 -13 0 -20 7 -20 20 0 13 -7 20 -20 20 -13 0 -20 7 -20 20 0 13 -7
20 -20 20 -13 0 -20 7 -20 20 l0 20 -40 0 -40 0 0 20 c0 13 -7 20 -20 20 -13
0 -20 7 -20 20 0 13 -7 20 -20 20 -13 0 -20 7 -20 20 0 13 -7 20 -20 20 -13 0
-20 7 -20 20 0 13 -7 20 -20 20 -13 0 -20 7 -20 20 0 13 -7 20 -20 20 -13 0
-20 7 -20 20 0 13 -7 20 -20 20 -13 0 -20 7 -20 20 0 13 -7 20 -20 20 -13 0
-20 7 -20 20 0 13 -7 20 -20 20 -13 0 -20 7 -20 20 0 13 -7 20 -20 20 -13 0
-20 7 -20 20 0 13 -7 20 -20 20 -13 0 -20 7 -20 20 0 13 -7 20 -20 20 -13 0
-20 7 -20 20 0 13 -7 20 -20 20 -13 0 -20 7 -20 20 0 13 -7 20 -20 20 -13 0
-20 7 -20 20 l0 20 -40 0 -40 0 0 20 c0 13 -7 20 -20 20 -13 0 -20 7 -20 20 0
13 -7 20 -20 20 -13 0 -20 7 -20 20 0 13 -7 20 -20 20 -13 0 -20 7 -20 20 0
13 -7 20 -20 20 -13 0 -20 7 -20 20 0 13 -7 20 -20 20 -13 0 -20 7 -20 20 0
13 -7 20 -20 20 -13 0 -20 7 -20 20 0 13 -7 20 -20 20 -13 0 -20 7 -20 20 0
13 -7 20 -20 20 -13 0 -20 7 -20 20 0 13 -7 20 -20 20 -13 0 -20 7 -20 20 0
13 -7 20 -20 20 -13 0 -20 7 -20 20 0 13 -7 20 -20 20 -13 0 -20 7 -20 20 0
13 -7 20 -20 20 l-20 0 0 -40z"/>
<path d="M11760 7420 l0 -20 80 0 80 0 0 20 0 20 -80 0 -80 0 0 -20z"/>
<path d="M17920 5640 l0 -1760 20 0 20 0 0 1760 0 1760 -20 0 -20 0 0 -1760z"/>
<path d="M11720 7320 l0 -40 -20 0 c-13 0 -20 -7 -20 -20 0 -13 7 -20 20 -20
13 0 20 7 20 20 0 13 7 20 20 20 l20 0 0 40 0 40 -20 0 -20 0 0 -40z"/>
<path d="M11960 7260 c0 -13 7 -20 20 -20 l20 0 0 -40 0 -40 20 0 20 0 0 -40
0 -40 20 0 c13 0 20 -7 20 -20 0 -13 7 -20 20 -20 13 0 20 7 20 20 0 13 -7 20
-20 20 l-20 0 0 40 0 40 -20 0 -20 0 0 40 0 40 -20 0 c-13 0 -20 7 -20 20 0
13 -7 20 -20 20 -13 0 -20 -7 -20 -20z"/>
<path d="M27000 6340 l0 -900 20 0 20 0 0 900 0 900 -20 0 -20 0 0 -900z"/>
<path d="M11600 7100 c0 -13 -7 -20 -20 -20 l-20 0 0 -40 0 -40 20 0 20 0 0
40 0 40 20 0 c13 0 20 7 20 20 0 13 -7 20 -20 20 -13 0 -20 -7 -20 -20z"/>
<path d="M11200 7060 c0 -13 -7 -20 -20 -20 l-20 0 0 -40 0 -40 -20 0 -20 0 0
-40 0 -40 -20 0 c-13 0 -20 -7 -20 -20 0 -13 7 -20 20 -20 13 0 20 7 20 20 0
13 7 20 20 20 l20 0 0 40 0 40 20 0 20 0 0 40 0 40 20 0 c13 0 20 7 20 20 0
13 -7 20 -20 20 -13 0 -20 -7 -20 -20z"/>
<path d="M12120 6960 l0 -40 20 0 c13 0 20 -7 20 -20 0 -13 7 -20 20 -20 l20
0 0 -40 0 -40 20 0 20 0 0 -40 0 -40 20 0 c13 0 20 -7 20 -20 0 -13 7 -20 20
-20 13 0 20 7 20 20 0 13 -7 20 -20 20 l-20 0 0 40 0 40 -20 0 -20 0 0 40 0
40 -20 0 c-13 0 -20 7 -20 20 0 13 -7 20 -20 20 l-20 0 0 40 0 40 -20 0 -20 0
0 -40z"/>
<path d="M11520 6940 c0 -13 -7 -20 -20 -20 l-20 0 0 -40 0 -40 -20 0 -20 0 0
-40 0 -40 -20 0 -20 0 0 -40 0 -40 -20 0 -20 0 0 -40 0 -40 -20 0 c-13 0 -20
-7 -20 -20 0 -13 7 -20 20 -20 13 0 20 7 20 20 0 13 7 20 20 20 l20 0 0 40 0
40 20 0 20 0 0 40 0 40 20 0 20 0 0 40 0 40 20 0 20 0 0 40 0 40 20 0 c13 0
20 7 20 20 0 13 -7 20 -20 20 -13 0 -20 -7 -20 -20z"/>
<path d="M13560 6940 c0 -13 7 -20 20 -20 l20 0 0 -40 0 -40 20 0 c13 0 20 -7
20 -20 0 -13 7 -20 20 -20 l20 0 0 -40 0 -40 20 0 20 0 0 -40 0 -40 20 0 c13
0 20 -7 20 -20 0 -13 7 -20 20 -20 13 0 20 7 20 20 0 13 -7 20 -20 20 l-20 0
0 40 0 40 -20 0 -20 0 0 40 0 40 -20 0 c-13 0 -20 7 -20 20 0 13 -7 20 -20 20
l-20 0 0 40 0 40 -20 0 c-13 0 -20 7 -20 20 0 13 -7 20 -20 20 -13 0 -20 -7
-20 -20z"/>
<path d="M11000 6700 c0 -13 -7 -20 -20 -20 l-20 0 0 -40 0 -40 -20 0 -20 0 0
-40 0 -40 -20 0 -20 0 0 -40 0 -40 -20 0 c-13 0 -20 -7 -20 -20 0 -13 -7 -20
-20 -20 l-20 0 0 -40 0 -40 -20 0 -20 0 0 -40 0 -40 -20 0 -20 0 0 -40 0 -40
-20 0 -20 0 0 -40 0 -40 -20 0 -20 0 0 -40 0 -40 -20 0 c-13 0 -20 -7 -20 -20
0 -13 -7 -20 -20 -20 l-20 0 0 -40 0 -40 -20 0 -20 0 0 -40 0 -40 -20 0 -20 0
0 -40 0 -40 -20 0 -20 0 0 -40 0 -40 -20 0 -20 0 0 -40 0 -40 -20 0 c-13 0
-20 -7 -20 -20 0 -13 -7 -20 -20 -20 l-20 0 0 -40 0 -40 -20 0 -20 0 0 -40 0
-40 -20 0 -20 0 0 -40 0 -40 -20 0 c-13 0 -20 -7 -20 -20 0 -13 7 -20 20 -20
13 0 20 7 20 20 0 13 7 20 20 20 l20 0 0 40 0 40 20 0 20 0 0 40 0 40 20 0 20
0 0 40 0 40 20 0 c13 0 20 7 20 20 0 13 7 20 20 20 l20 0 0 40 0 40 20 0 20 0
0 40 0 40 20 0 20 0 0 40 0 40 20 0 20 0 0 40 0 40 20 0 20 0 0 40 0 40 20 0
c13 0 20 7 20 20 0 13 7 20 20 20 l20 0 0 40 0 40 20 0 20 0 0 40 0 40 20 0
20 0 0 40 0 40 20 0 20 0 0 40 0 40 20 0 20 0 0 40 0 40 20 0 c13 0 20 7 20
20 0 13 7 20 20 20 l20 0 0 40 0 40 20 0 20 0 0 40 0 40 20 0 20 0 0 40 0 40
20 0 c13 0 20 7 20 20 0 13 -7 20 -20 20 -13 0 -20 -7 -20 -20z"/>
<path d="M12360 6540 c0 -13 7 -20 20 -20 l20 0 0 -40 0 -40 20 0 c13 0 20 -7
20 -20 0 -13 7 -20 20 -20 13 0 20 7 20 20 0 13 -7 20 -20 20 l-20 0 0 40 0
40 -20 0 c-13 0 -20 7 -20 20 0 13 -7 20 -20 20 -13 0 -20 -7 -20 -20z"/>
<path d="M13800 6540 c0 -13 7 -20 20 -20 l20 0 0 -40 0 -40 20 0 20 0 0 -40
0 -40 20 0 c13 0 20 -7 20 -20 0 -13 7 -20 20 -20 l20 0 0 -40 0 -40 20 0 c13
0 20 -7 20 -20 0 -13 7 -20 20 -20 l20 0 0 -40 0 -40 20 0 20 0 0 -40 0 -40
20 0 c13 0 20 -7 20 -20 0 -13 7 -20 20 -20 13 0 20 7 20 20 0 13 -7 20 -20
20 l-20 0 0 40 0 40 -20 0 -20 0 0 40 0 40 -20 0 c-13 0 -20 7 -20 20 0 13 -7
20 -20 20 l-20 0 0 40 0 40 -20 0 c-13 0 -20 7 -20 20 0 13 -7 20 -20 20 l-20
0 0 40 0 40 -20 0 -20 0 0 40 0 40 -20 0 c-13 0 -20 7 -20 20 0 13 -7 20 -20
20 -13 0 -20 -7 -20 -20z"/>
<path d="M11280 6500 c0 -13 -7 -20 -20 -20 l-20 0 0 -40 0 -40 -20 0 -20 0 0
-40 0 -40 -20 0 -20 0 0 -40 0 -40 -20 0 -20 0 0 -40 0 -40 -20 0 -20 0 0 -40
0 -40 -20 0 -20 0 0 -40 0 -40 -20 0 c-13 0 -20 -7 -20 -20 0 -13 -7 -20 -20
-20 l-20 0 0 -40 0 -40 -20 0 -20 0 0 -40 0 -40 -20 0 -20 0 0 -40 0 -40 -20
0 -20 0 0 -40 0 -40 -20 0 -20 0 0 -40 0 -40 -20 0 c-13 0 -20 -7 -20 -20 0
-13 -7 -20 -20 -20 l-20 0 0 -40 0 -40 -20 0 -20 0 0 -40 0 -40 -20 0 -20 0 0
-40 0 -40 -20 0 -20 0 0 -40 0 -40 -20 0 -20 0 0 -40 0 -40 -20 0 -20 0 0 -40
0 -40 -20 0 -20 0 0 -40 0 -40 -20 0 c-13 0 -20 -7 -20 -20 0 -13 -7 -20 -20
-20 l-20 0 0 -40 0 -40 -20 0 -20 0 0 -40 0 -40 -20 0 -20 0 0 -40 0 -40 -20
0 -20 0 0 -40 0 -40 -20 0 -20 0 0 -40 0 -40 -20 0 -20 0 0 -40 0 -40 -20 0
c-13 0 -20 -7 -20 -20 0 -13 7 -20 20 -20 13 0 20 7 20 20 0 13 7 20 20 20
l20 0 0 40 0 40 20 0 20 0 0 40 0 40 20 0 20 0 0 40 0 40 20 0 20 0 0 40 0 40
20 0 20 0 0 40 0 40 20 0 c13 0 20 7 20 20 0 13 7 20 20 20 l20 0 0 40 0 40
20 0 20 0 0 40 0 40 20 0 20 0 0 40 0 40 20 0 20 0 0 40 0 40 20 0 20 0 0 40
0 40 20 0 20 0 0 40 0 40 20 0 20 0 0 40 0 40 20 0 20 0 0 40 0 40 20 0 c13 0
20 7 20 20 0 13 7 20 20 20 l20 0 0 40 0 40 20 0 20 0 0 40 0 40 20 0 20 0 0
40 0 40 20 0 20 0 0 40 0 40 20 0 c13 0 20 7 20 20 0 13 7 20 20 20 l20 0 0
40 0 40 20 0 20 0 0 40 0 40 20 0 20 0 0 40 0 40 20 0 20 0 0 40 0 40 20 0 20
0 0 40 0 40 20 0 20 0 0 40 0 40 20 0 20 0 0 40 0 40 20 0 c13 0 20 7 20 20 0
13 -7 20 -20 20 -13 0 -20 -7 -20 -20z"/>
<path d="M32240 5640 l0 -760 -20 0 -20 0 0 -100 0 -100 -20 0 -20 0 0 -40 0
-40 -20 0 -20 0 0 -60 0 -60 -20 0 c-13 0 -20 -7 -20 -20 0 -13 -7 -20 -20
-20 l-20 0 0 -40 0 -40 -20 0 c-13 0 -20 -7 -20 -20 0 -13 -7 -20 -20 -20 -13
0 -20 -7 -20 -20 0 -13 -7 -20 -20 -20 -13 0 -20 -7 -20 -20 0 -13 -7 -20 -20
-20 -13 0 -20 -7 -20 -20 0 -13 -7 -20 -20 -20 -13 0 -20 -7 -20 -20 0 -13 -7
-20 -20 -20 -13 0 -20 -7 -20 -20 0 -13 -7 -20 -20 -20 -13 0 -20 -7 -20 -20
0 -13 -7 -20 -20 -20 -13 0 -20 -7 -20 -20 0 -13 -7 -20 -20 -20 -13 0 -20 -7
-20 -20 0 -13 -7 -20 -20 -20 -13 0 -20 -7 -20 -20 l0 -20 -40 0 -40 0 0 -20
c0 -13 -7 -20 -20 -20 -13 0 -20 -7 -20 -20 0 -13 7 -20 20 -20 13 0 20 7 20
20 l0 20 40 0 40 0 0 20 c0 13 7 20 20 20 13 0 20 7 20 20 0 13 7 20 20 20 13
0 20 7 20 20 0 13 7 20 20 20 13 0 20 7 20 20 l0 20 40 0 40 0 0 40 0 40 20 0
c13 0 20 7 20 20 0 13 7 20 20 20 13 0 20 7 20 20 0 13 7 20 20 20 13 0 20 7
20 20 0 13 7 20 20 20 13 0 20 7 20 20 0 13 7 20 20 20 13 0 20 7 20 20 0 13
7 20 20 20 l20 0 0 40 0 40 20 0 c13 0 20 7 20 20 0 13 7 20 20 20 l20 0 0 40
0 40 20 0 20 0 0 60 0 60 20 0 20 0 0 100 0 100 20 0 20 0 0 760 0 760 -20 0
-20 0 0 -760z"/>
<path d="M12480 6340 c0 -13 7 -20 20 -20 l20 0 0 -40 0 -40 20 0 20 0 0 -40
0 -40 20 0 20 0 0 -40 0 -40 20 0 c13 0 20 -7 20 -20 0 -13 7 -20 20 -20 13 0
20 7 20 20 0 13 -7 20 -20 20 l-20 0 0 40 0 40 -20 0 -20 0 0 40 0 40 -20 0
-20 0 0 40 0 40 -20 0 c-13 0 -20 7 -20 20 0 13 -7 20 -20 20 -13 0 -20 -7
-20 -20z"/>
<path d="M12680 5980 c0 -13 7 -20 20 -20 l20 0 0 -40 0 -40 20 0 c13 0 20 -7
20 -20 0 -13 7 -20 20 -20 13 0 20 7 20 20 0 13 -7 20 -20 20 l-20 0 0 40 0
40 -20 0 c-13 0 -20 7 -20 20 0 13 -7 20 -20 20 -13 0 -20 -7 -20 -20z"/>
<path d="M19240 4960 l0 -1040 20 0 20 0 0 1020 0 1020 1680 0 1680 0 0 -400
0 -400 20 0 20 0 0 400 0 400 -20 0 c-13 0 -20 7 -20 20 l0 20 -1700 0 -1700
0 0 -1040z"/>
<path d="M14160 5940 c0 -13 7 -20 20 -20 l20 0 0 -40 0 -40 20 0 c13 0 20 -7
20 -20 0 -13 7 -20 20 -20 l20 0 0 -40 0 -40 20 0 20 0 0 -40 0 -40 20 0 c13
0 20 -7 20 -20 0 -13 7 -20 20 -20 13 0 20 7 20 20 0 13 -7 20 -20 20 l-20 0
0 40 0 40 -20 0 -20 0 0 40 0 40 -20 0 c-13 0 -20 7 -20 20 0 13 -7 20 -20 20
l-20 0 0 40 0 40 -20 0 c-13 0 -20 7 -20 20 0 13 -7 20 -20 20 -13 0 -20 -7
-20 -20z"/>
<path d="M12800 5760 l0 -40 20 0 c13 0 20 -7 20 -20 0 -13 7 -20 20 -20 l20
0 0 -40 0 -40 20 0 20 0 0 -40 0 -40 20 0 20 0 0 -40 0 -40 20 0 c13 0 20 -7
20 -20 0 -13 7 -20 20 -20 l20 0 0 -40 0 -40 20 0 20 0 0 -40 0 -40 20 0 20 0
0 -40 0 -40 20 0 c13 0 20 -7 20 -20 0 -13 7 -20 20 -20 l20 0 0 -40 0 -40 20
0 20 0 0 -40 0 -40 20 0 20 0 0 -40 0 -40 20 0 c13 0 20 -7 20 -20 0 -13 7
-20 20 -20 13 0 20 7 20 20 0 13 -7 20 -20 20 l-20 0 0 40 0 40 -20 0 -20 0 0
40 0 40 -20 0 -20 0 0 40 0 40 -20 0 c-13 0 -20 7 -20 20 0 13 -7 20 -20 20
l-20 0 0 40 0 40 -20 0 -20 0 0 40 0 40 -20 0 -20 0 0 40 0 40 -20 0 c-13 0
-20 7 -20 20 0 13 -7 20 -20 20 l-20 0 0 40 0 40 -20 0 -20 0 0 40 0 40 -20 0
-20 0 0 40 0 40 -20 0 c-13 0 -20 7 -20 20 0 13 -7 20 -20 20 l-20 0 0 40 0
40 -20 0 -20 0 0 -40z"/>
<path d="M3920 5620 l0 -20 40 0 40 0 0 -40 0 -40 40 0 40 0 0 -20 c0 -13 7
-20 20 -20 l20 0 0 -40 0 -40 40 0 40 0 0 -20 c0 -13 7 -20 20 -20 13 0 20 -7
20 -20 0 -13 7 -20 20 -20 13 0 20 -7 20 -20 0 -13 7 -20 20 -20 13 0 20 -7
20 -20 0 -13 7 -20 20 -20 13 0 20 -7 20 -20 0 -13 7 -20 20 -20 13 0 20 -7
20 -20 0 -13 7 -20 20 -20 13 0 20 -7 20 -20 l0 -20 40 0 40 0 0 -20 c0 -13 7
-20 20 -20 13 0 20 -7 20 -20 0 -13 7 -20 20 -20 13 0 20 -7 20 -20 0 -13 7
-20 20 -20 13 0 20 -7 20 -20 0 -13 7 -20 20 -20 13 0 20 -7 20 -20 0 -13 7
-20 20 -20 13 0 20 -7 20 -20 0 -13 7 -20 20 -20 13 0 20 -7 20 -20 0 -13 7
-20 20 -20 13 0 20 -7 20 -20 0 -13 7 -20 20 -20 13 0 20 -7 20 -20 0 -13 7
-20 20 -20 13 0 20 -7 20 -20 0 -13 7 -20 20 -20 13 0 20 -7 20 -20 0 -13 7
-20 20 -20 13 0 20 -7 20 -20 0 -13 7 -20 20 -20 13 0 20 -7 20 -20 0 -13 7
-20 20 -20 13 0 20 -7 20 -20 0 -13 7 -20 20 -20 13 0 20 -7 20 -20 l0 -20 40
0 40 0 0 -20 c0 -13 7 -20 20 -20 13 0 20 -7 20 -20 0 -13 7 -20 20 -20 13 0
20 -7 20 -20 0 -13 7 -20 20 -20 13 0 20 -7 20 -20 0 -13 7 -20 20 -20 13 0
20 -7 20 -20 0 -13 7 -20 20 -20 13 0 20 -7 20 -20 0 -13 7 -20 20 -20 13 0
20 -7 20 -20 0 -13 7 -20 20 -20 13 0 20 -7 20 -20 0 -13 7 -20 20 -20 13 0
20 -7 20 -20 0 -13 7 -20 20 -20 13 0 20 -7 20 -20 0 -13 7 -20 20 -20 13 0
20 -7 20 -20 0 -13 7 -20 20 -20 13 0 20 -7 20 -20 0 -13 7 -20 20 -20 13 0
20 -7 20 -20 0 -13 7 -20 20 -20 13 0 20 -7 20 -20 0 -13 7 -20 20 -20 l20 0
0 40 0 40 -40 0 -40 0 0 20 c0 13 -7 20 -20 20 -13 0 -20 7 -20 20 0 13 -7 20
-20 20 -13 0 -20 7 -20 20 0 13 -7 20 -20 20 -13 0 -20 7 -20 20 0 13 -7 20
-20 20 -13 0 -20 7 -20 20 0 13 -7 20 -20 20 -13 0 -20 7 -20 20 0 13 -7 20
-20 20 -13 0 -20 7 -20 20 0 13 -7 20 -20 20 -13 0 -20 7 -20 20 0 13 -7 20
-20 20 -13 0 -20 7 -20 20 0 13 -7 20 -20 20 -13 0 -20 7 -20 20 0 13 -7 20
-20 20 -13 0 -20 7 -20 20 0 13 -7 20 -20 20 -13 0 -20 7 -20 20 0 13 -7 20
-20 20 -13 0 -20 7 -20 20 0 13 -7 20 -20 20 -13 0 -20 7 -20 20 l0 20 -40 0
-40 0 0 20 c0 13 -7 20 -20 20 -13 0 -20 7 -20 20 0 13 -7 20 -20 20 -13 0
-20 7 -20 20 0 13 -7 20 -20 20 -13 0 -20 7 -20 20 0 13 -7 20 -20 20 -13 0
-20 7 -20 20 0 13 -7 20 -20 20 -13 0 -20 7 -20 20 0 13 -7 20 -20 20 -13 0
-20 7 -20 20 0 13 -7 20 -20 20 -13 0 -20 7 -20 20 0 13 -7 20 -20 20 -13 0
-20 7 -20 20 0 13 -7 20 -20 20 -13 0 -20 7 -20 20 0 13 -7 20 -20 20 -13 0
-20 7 -20 20 0 13 -7 20 -20 20 -13 0 -20 7 -20 20 0 13 -7 20 -20 20 -13 0
-20 7 -20 20 0 13 -7 20 -20 20 -13 0 -20 7 -20 20 0 13 -7 20 -20 20 -13 0
-20 7 -20 20 l0 20 -40 0 -40 0 0 20 c0 13 -7 20 -20 20 -13 0 -20 7 -20 20 0
13 -7 20 -20 20 -13 0 -20 7 -20 20 0 13 -7 20 -20 20 -13 0 -20 7 -20 20 0
13 -7 20 -20 20 -13 0 -20 7 -20 20 0 13 -7 20 -20 20 -13 0 -20 7 -20 20 0
13 -7 20 -20 20 -13 0 -20 7 -20 20 0 13 -7 20 -20 20 -13 0 -20 7 -20 20 0
13 -7 20 -20 20 -13 0 -20 7 -20 20 0 13 -7 20 -20 20 -13 0 -20 7 -20 20 0
13 -7 20 -20 20 -13 0 -20 7 -20 20 l0 20 -40 0 -40 0 0 -20z"/>
<path d="M14400 5540 c0 -13 7 -20 20 -20 l20 0 0 -40 0 -40 20 0 c13 0 20 -7
20 -20 0 -13 7 -20 20 -20 l20 0 0 -40 0 -40 20 0 20 0 0 -40 0 -40 20 0 c13
0 20 -7 20 -20 0 -13 7 -20 20 -20 l20 0 0 -40 0 -40 20 0 20 0 0 -40 0 -40
20 0 c13 0 20 -7 20 -20 0 -13 7 -20 20 -20 13 0 20 7 20 20 0 13 -7 20 -20
20 l-20 0 0 40 0 40 -20 0 -20 0 0 40 0 40 -20 0 c-13 0 -20 7 -20 20 0 13 -7
20 -20 20 l-20 0 0 40 0 40 -20 0 -20 0 0 40 0 40 -20 0 c-13 0 -20 7 -20 20
0 13 -7 20 -20 20 l-20 0 0 40 0 40 -20 0 c-13 0 -20 7 -20 20 0 13 -7 20 -20
20 -13 0 -20 -7 -20 -20z"/>
<path d="M28320 5380 l0 -180 20 0 20 0 0 180 0 180 -20 0 -20 0 0 -180z"/>
<path d="M32720 5400 l0 -120 20 0 20 0 0 120 0 120 -20 0 -20 0 0 -120z"/>
<path d="M10160 5180 c0 -13 -7 -20 -20 -20 l-20 0 0 -40 0 -40 -20 0 -20 0 0
-40 0 -40 -20 0 -20 0 0 -40 0 -40 -20 0 -20 0 0 -40 0 -40 -20 0 c-13 0 -20
-7 -20 -20 0 -13 -7 -20 -20 -20 l-20 0 0 -40 0 -40 -20 0 -20 0 0 -40 0 -40
20 0 20 0 0 40 0 40 20 0 20 0 0 40 0 40 20 0 c13 0 20 7 20 20 0 13 7 20 20
20 l20 0 0 40 0 40 20 0 20 0 0 40 0 40 20 0 20 0 0 40 0 40 20 0 20 0 0 40 0
40 20 0 c13 0 20 7 20 20 0 13 -7 20 -20 20 -13 0 -20 -7 -20 -20z"/>
<path d="M32680 5080 l0 -120 20 0 20 0 0 120 0 120 -20 0 -20 0 0 -120z"/>
<path d="M28360 5020 l0 -140 20 0 20 0 0 140 0 140 -20 0 -20 0 0 -140z"/>
<path d="M27000 5040 l0 -80 20 0 20 0 0 80 0 80 -20 0 -20 0 0 -80z"/>
<path d="M22600 5040 l0 -40 20 0 20 0 0 40 0 40 -20 0 -20 0 0 -40z"/>
<path d="M14760 4940 c0 -13 7 -20 20 -20 l20 0 0 -40 0 -40 20 0 20 0 0 -40
0 -40 20 0 c13 0 20 -7 20 -20 0 -13 7 -20 20 -20 l20 0 0 -40 0 -40 20 0 20
0 0 -40 0 -40 20 0 20 0 0 -40 0 -40 20 0 c13 0 20 -7 20 -20 0 -13 7 -20 20
-20 13 0 20 7 20 20 0 13 -7 20 -20 20 l-20 0 0 40 0 40 -20 0 -20 0 0 40 0
40 -20 0 -20 0 0 40 0 40 -20 0 c-13 0 -20 7 -20 20 0 13 -7 20 -20 20 l-20 0
0 40 0 40 -20 0 -20 0 0 40 0 40 -20 0 c-13 0 -20 7 -20 20 0 13 -7 20 -20 20
-13 0 -20 -7 -20 -20z"/>
<path d="M32640 4860 l0 -60 -20 0 -20 0 0 -80 0 -80 20 0 20 0 0 40 0 40 60
0 60 0 0 20 0 20 -40 0 -40 0 0 80 0 80 -20 0 -20 0 0 -60z"/>
<path d="M22600 4560 l0 -320 20 0 20 0 0 320 0 320 -20 0 -20 0 0 -320z"/>
<path d="M27040 4780 l0 -60 20 0 20 0 0 -40 0 -40 20 0 20 0 0 40 0 40 -20 0
-20 0 0 60 0 60 -20 0 -20 0 0 -60z"/>
<path d="M28400 4780 l0 -60 20 0 20 0 0 -60 0 -60 20 0 20 0 0 60 0 60 -20 0
-20 0 0 60 0 60 -20 0 -20 0 0 -60z"/>
<path d="M13360 4780 c0 -13 7 -20 20 -20 l20 0 0 -40 0 -40 20 0 20 0 0 -40
0 -40 20 0 c13 0 20 -7 20 -20 0 -13 7 -20 20 -20 l20 0 0 -40 0 -40 20 0 20
0 0 -40 0 -40 20 0 20 0 0 -40 0 -40 20 0 20 0 0 -40 0 -40 20 0 c13 0 20 -7
20 -20 0 -13 7 -20 20 -20 l20 0 0 -40 0 -40 20 0 20 0 0 -40 0 -40 20 0 c13
0 20 -7 20 -20 0 -13 7 -20 20 -20 13 0 20 7 20 20 0 13 -7 20 -20 20 l-20 0
0 40 0 40 -20 0 -20 0 0 40 0 40 -20 0 -20 0 0 40 0 40 -20 0 c-13 0 -20 7
-20 20 0 13 -7 20 -20 20 l-20 0 0 40 0 40 -20 0 -20 0 0 40 0 40 -20 0 -20 0
0 40 0 40 -20 0 c-13 0 -20 7 -20 20 0 13 -7 20 -20 20 l-20 0 0 40 0 40 -20
0 -20 0 0 40 0 40 -20 0 c-13 0 -20 7 -20 20 0 13 -7 20 -20 20 -13 0 -20 -7
-20 -20z"/>
<path d="M23880 4440 l0 -240 20 0 20 0 0 240 0 240 -20 0 -20 0 0 -240z"/>
<path d="M9840 4580 c0 -13 -7 -20 -20 -20 l-20 0 0 -40 0 -40 -20 0 -20 0 0
-40 0 -40 -20 0 -20 0 0 -40 0 -40 -20 0 c-13 0 -20 -7 -20 -20 0 -13 -7 -20
-20 -20 l-20 0 0 -40 0 -40 -20 0 -20 0 0 -40 0 -40 -20 0 c-13 0 -20 -7 -20
-20 0 -13 -7 -20 -20 -20 -13 0 -20 -7 -20 -20 0 -13 -7 -20 -20 -20 l-20 0 0
-40 0 -40 -20 0 c-13 0 -20 -7 -20 -20 0 -13 -7 -20 -20 -20 -13 0 -20 -7 -20
-20 0 -13 -7 -20 -20 -20 l-20 0 0 -40 0 -40 -20 0 c-13 0 -20 -7 -20 -20 0
-13 -7 -20 -20 -20 -13 0 -20 -7 -20 -20 0 -13 -7 -20 -20 -20 -13 0 -20 -7
-20 -20 0 -13 -7 -20 -20 -20 -13 0 -20 -7 -20 -20 0 -13 7 -20 20 -20 13 0
20 7 20 20 0 13 7 20 20 20 13 0 20 7 20 20 0 13 7 20 20 20 13 0 20 7 20 20
0 13 7 20 20 20 13 0 20 7 20 20 0 13 7 20 20 20 l20 0 0 40 0 40 20 0 c13 0
20 7 20 20 0 13 7 20 20 20 13 0 20 7 20 20 0 13 7 20 20 20 l20 0 0 40 0 40
20 0 c13 0 20 7 20 20 0 13 7 20 20 20 13 0 20 7 20 20 0 13 7 20 20 20 l20 0
0 40 0 40 20 0 20 0 0 40 0 40 20 0 c13 0 20 7 20 20 0 13 7 20 20 20 l20 0 0
40 0 40 20 0 20 0 0 40 0 40 20 0 20 0 0 40 0 40 20 0 c13 0 20 7 20 20 0 13
-7 20 -20 20 -13 0 -20 -7 -20 -20z"/>
<path d="M27120 4560 l0 -40 20 0 20 0 0 -40 0 -40 20 0 20 0 0 -40 0 -40 20
0 c13 0 20 -7 20 -20 0 -13 7 -20 20 -20 13 0 20 7 20 20 0 13 -7 20 -20 20
l-20 0 0 40 0 40 -20 0 -20 0 0 40 0 40 -20 0 -20 0 0 40 0 40 -20 0 -20 0 0
-40z"/>
<path d="M28480 4520 l0 -40 20 0 20 0 0 -40 0 -40 20 0 20 0 0 -40 0 -40 20
0 c13 0 20 -7 20 -20 0 -13 7 -20 20 -20 l20 0 0 -40 0 -40 20 0 c13 0 20 -7
20 -20 0 -13 7 -20 20 -20 13 0 20 -7 20 -20 0 -13 7 -20 20 -20 l20 0 0 -40
0 -40 20 0 c13 0 20 -7 20 -20 0 -13 7 -20 20 -20 13 0 20 -7 20 -20 0 -13 7
-20 20 -20 13 0 20 -7 20 -20 l0 -20 40 0 40 0 0 -20 c0 -13 7 -20 20 -20 13
0 20 -7 20 -20 l0 -20 40 0 40 0 0 -20 0 -20 40 0 40 0 0 -20 0 -20 60 0 60 0
0 -20 0 -20 40 0 40 0 0 20 0 20 -40 0 -40 0 0 20 0 20 -60 0 -60 0 0 20 0 20
-40 0 -40 0 0 20 0 20 -40 0 -40 0 0 20 c0 13 -7 20 -20 20 -13 0 -20 7 -20
20 l0 20 -40 0 -40 0 0 20 c0 13 -7 20 -20 20 -13 0 -20 7 -20 20 0 13 -7 20
-20 20 l-20 0 0 40 0 40 -20 0 c-13 0 -20 7 -20 20 0 13 -7 20 -20 20 -13 0
-20 7 -20 20 0 13 -7 20 -20 20 l-20 0 0 40 0 40 -20 0 c-13 0 -20 7 -20 20 0
13 -7 20 -20 20 l-20 0 0 40 0 40 -20 0 -20 0 0 40 0 40 -20 0 -20 0 0 40 0
40 -20 0 -20 0 0 -40z"/>
<path d="M32520 4480 l0 -40 -20 0 -20 0 0 -40 0 -40 -20 0 -20 0 0 -40 0 -40
-20 0 -20 0 0 -40 0 -40 -20 0 -20 0 0 -40 0 -40 -20 0 c-13 0 -20 -7 -20 -20
0 -13 -7 -20 -20 -20 -13 0 -20 -7 -20 -20 0 -13 -7 -20 -20 -20 -13 0 -20 -7
-20 -20 0 -13 -7 -20 -20 -20 -13 0 -20 -7 -20 -20 l0 -20 -40 0 -40 0 0 -20
c0 -13 -7 -20 -20 -20 -13 0 -20 -7 -20 -20 l0 -20 -40 0 -40 0 0 -20 c0 -13
-7 -20 -20 -20 -13 0 -20 -7 -20 -20 0 -13 7 -20 20 -20 13 0 20 7 20 20 l0
20 40 0 40 0 0 20 c0 13 7 20 20 20 13 0 20 7 20 20 l0 20 40 0 40 0 0 20 c0
13 7 20 20 20 13 0 20 7 20 20 0 13 7 20 20 20 13 0 20 7 20 20 0 13 7 20 20
20 13 0 20 7 20 20 0 13 7 20 20 20 13 0 20 7 20 20 0 13 7 20 20 20 l20 0 0
40 0 40 20 0 20 0 0 40 0 40 20 0 20 0 0 40 0 40 20 0 20 0 0 40 0 40 20 0 20
0 0 40 0 40 -20 0 -20 0 0 -40z"/>
<path d="M15080 4380 c0 -13 7 -20 20 -20 l20 0 0 -40 0 -40 20 0 20 0 0 -40
0 -40 20 0 c13 0 20 -7 20 -20 0 -13 7 -20 20 -20 13 0 20 7 20 20 0 13 -7 20
-20 20 l-20 0 0 40 0 40 -20 0 -20 0 0 40 0 40 -20 0 c-13 0 -20 7 -20 20 0
13 -7 20 -20 20 -13 0 -20 -7 -20 -20z"/>
<path d="M1080 4300 l0 -60 20 0 20 0 0 60 0 60 -20 0 -20 0 0 -60z"/>
<path d="M10120 4340 c0 -13 -7 -20 -20 -20 l-20 0 0 -40 0 -40 -20 0 -20 0 0
-40 0 -40 -20 0 c-13 0 -20 -7 -20 -20 0 -13 -7 -20 -20 -20 l-20 0 0 -60 0
-60 -20 0 -20 0 0 -40 0 -40 20 0 20 0 0 40 0 40 20 0 20 0 0 40 0 40 20 0 20
0 0 40 0 40 20 0 20 0 0 40 0 40 20 0 20 0 0 40 0 40 20 0 c13 0 20 7 20 20 0
13 -7 20 -20 20 -13 0 -20 -7 -20 -20z"/>
<path d="M27280 4260 c0 -13 7 -20 20 -20 l20 0 0 -40 0 -40 20 0 c13 0 20 -7
20 -20 0 -13 7 -20 20 -20 13 0 20 -7 20 -20 0 -13 7 -20 20 -20 13 0 20 -7
20 -20 0 -13 7 -20 20 -20 13 0 20 -7 20 -20 0 -13 7 -20 20 -20 13 0 20 -7
20 -20 0 -13 7 -20 20 -20 13 0 20 -7 20 -20 0 -13 7 -20 20 -20 13 0 20 -7
20 -20 0 -13 7 -20 20 -20 13 0 20 -7 20 -20 0 -13 7 -20 20 -20 13 0 20 7 20
20 0 13 -7 20 -20 20 -13 0 -20 7 -20 20 0 13 -7 20 -20 20 -13 0 -20 7 -20
20 0 13 -7 20 -20 20 -13 0 -20 7 -20 20 0 13 -7 20 -20 20 -13 0 -20 7 -20
20 0 13 -7 20 -20 20 -13 0 -20 7 -20 20 0 13 -7 20 -20 20 -13 0 -20 7 -20
20 0 13 -7 20 -20 20 -13 0 -20 7 -20 20 0 13 -7 20 -20 20 l-20 0 0 40 0 40
-20 0 c-13 0 -20 7 -20 20 0 13 -7 20 -20 20 -13 0 -20 -7 -20 -20z"/>
<path d="M1040 4100 l0 -60 -20 0 -20 0 0 -40 0 -40 -20 0 -20 0 0 -60 0 -60
-20 0 -20 0 0 -40 0 -40 -20 0 c-13 0 -20 -7 -20 -20 0 -13 -7 -20 -20 -20
-13 0 -20 -7 -20 -20 0 -13 -7 -20 -20 -20 -13 0 -20 -7 -20 -20 l0 -20 -60 0
-60 0 0 -20 0 -20 60 0 60 0 0 20 c0 13 7 20 20 20 13 0 20 7 20 20 0 13 7 20
20 20 13 0 20 7 20 20 0 13 7 20 20 20 13 0 20 7 20 20 0 13 7 20 20 20 l20 0
0 40 0 40 20 0 20 0 0 60 0 60 20 0 20 0 0 40 0 40 20 0 20 0 0 60 0 60 -20 0
-20 0 0 -60z"/>
<path d="M15240 4100 c0 -13 7 -20 20 -20 l20 0 0 -40 0 -40 20 0 c13 0 20 -7
20 -20 0 -13 7 -20 20 -20 13 0 20 -7 20 -20 0 -13 7 -20 20 -20 13 0 20 -7
20 -20 0 -13 7 -20 20 -20 l20 0 0 -40 0 -40 20 0 c13 0 20 -7 20 -20 0 -13 7
-20 20 -20 13 0 20 -7 20 -20 0 -13 7 -20 20 -20 13 0 20 -7 20 -20 0 -13 7
-20 20 -20 13 0 20 -7 20 -20 l0 -20 40 0 40 0 0 -20 c0 -13 7 -20 20 -20 13
0 20 -7 20 -20 l0 -20 60 0 60 0 0 20 0 20 -60 0 -60 0 0 20 c0 13 -7 20 -20
20 -13 0 -20 7 -20 20 0 13 -7 20 -20 20 -13 0 -20 7 -20 20 l0 20 -40 0 -40
0 0 40 0 40 -40 0 -40 0 0 40 0 40 -20 0 c-13 0 -20 7 -20 20 0 13 -7 20 -20
20 -13 0 -20 7 -20 20 0 13 -7 20 -20 20 -13 0 -20 7 -20 20 0 13 -7 20 -20
20 l-20 0 0 40 0 40 -20 0 c-13 0 -20 7 -20 20 0 13 -7 20 -20 20 -13 0 -20
-7 -20 -20z"/>
<path d="M23920 4060 l0 -60 20 0 20 0 0 60 0 60 -20 0 -20 0 0 -60z"/>
<path d="M1520 4000 l0 -80 20 0 20 0 0 80 0 80 -20 0 -20 0 0 -80z"/>
<path d="M5760 3940 c0 -13 7 -20 20 -20 13 0 20 -7 20 -20 0 -13 7 -20 20
-20 13 0 20 -7 20 -20 0 -13 7 -20 20 -20 13 0 20 -7 20 -20 0 -13 7 -20 20
-20 13 0 20 -7 20 -20 0 -13 7 -20 20 -20 13 0 20 -7 20 -20 0 -13 7 -20 20
-20 13 0 20 -7 20 -20 0 -13 7 -20 20 -20 13 0 20 -7 20 -20 0 -13 7 -20 20
-20 13 0 20 -7 20 -20 0 -13 7 -20 20 -20 13 0 20 -7 20 -20 0 -13 7 -20 20
-20 13 0 20 -7 20 -20 0 -13 7 -20 20 -20 13 0 20 -7 20 -20 0 -13 7 -20 20
-20 13 0 20 -7 20 -20 0 -13 7 -20 20 -20 13 0 20 -7 20 -20 0 -13 7 -20 20
-20 13 0 20 -7 20 -20 0 -13 7 -20 20 -20 13 0 20 -7 20 -20 l0 -20 220 0 220
0 0 20 0 20 -220 0 -220 0 0 20 c0 13 -7 20 -20 20 -13 0 -20 7 -20 20 0 13
-7 20 -20 20 -13 0 -20 7 -20 20 0 13 -7 20 -20 20 -13 0 -20 7 -20 20 0 13
-7 20 -20 20 -13 0 -20 7 -20 20 0 13 -7 20 -20 20 -13 0 -20 7 -20 20 0 13
-7 20 -20 20 -13 0 -20 7 -20 20 0 13 -7 20 -20 20 -13 0 -20 7 -20 20 0 13
-7 20 -20 20 -13 0 -20 7 -20 20 0 13 -7 20 -20 20 -13 0 -20 7 -20 20 0 13
-7 20 -20 20 -13 0 -20 7 -20 20 0 13 -7 20 -20 20 -13 0 -20 7 -20 20 0 13
-7 20 -20 20 -13 0 -20 7 -20 20 0 13 -7 20 -20 20 -13 0 -20 7 -20 20 0 13
-7 20 -20 20 -13 0 -20 7 -20 20 0 13 -7 20 -20 20 -13 0 -20 -7 -20 -20z"/>
<path d="M23960 3920 l0 -40 20 0 20 0 0 40 0 40 -20 0 -20 0 0 -40z"/>
<path d="M22600 3860 l0 -60 -20 0 -20 0 0 -40 0 -40 -20 0 c-13 0 -20 -7 -20
-20 0 -13 -7 -20 -20 -20 -13 0 -20 -7 -20 -20 l0 -20 -40 0 -40 0 0 -20 0
-20 -60 0 -60 0 0 -20 0 -20 60 0 60 0 0 20 0 20 40 0 40 0 0 20 c0 13 7 20
20 20 13 0 20 7 20 20 0 13 7 20 20 20 13 0 20 7 20 20 0 13 7 20 20 20 l20 0
0 40 0 40 20 0 20 0 0 60 0 60 -20 0 -20 0 0 -60z"/>
<path d="M1560 3860 c0 -13 7 -20 20 -20 l20 0 0 -40 0 -40 20 0 c13 0 20 -7
20 -20 0 -13 7 -20 20 -20 13 0 20 -7 20 -20 0 -13 7 -20 20 -20 13 0 20 -7
20 -20 l0 -20 40 0 40 0 0 -20 0 -20 40 0 40 0 0 -20 0 -20 60 0 60 0 0 20 0
20 -60 0 -60 0 0 20 0 20 -40 0 -40 0 0 20 0 20 -40 0 -40 0 0 20 c0 13 -7 20
-20 20 -13 0 -20 7 -20 20 0 13 -7 20 -20 20 l-20 0 0 40 0 40 -20 0 c-13 0
-20 7 -20 20 0 13 -7 20 -20 20 -13 0 -20 -7 -20 -20z"/>
<path d="M19280 3820 l0 -60 20 0 20 0 0 -40 0 -40 20 0 c13 0 20 -7 20 -20 0
-13 7 -20 20 -20 13 0 20 -7 20 -20 l0 -20 40 0 40 0 0 -20 0 -20 60 0 60 0 0
20 0 20 -60 0 -60 0 0 20 0 20 -40 0 -40 0 0 20 c0 13 -7 20 -20 20 l-20 0 0
40 0 40 -20 0 -20 0 0 60 0 60 -20 0 -20 0 0 -60z"/>
<path d="M17880 3820 c0 -13 -7 -20 -20 -20 l-20 0 0 -40 0 -40 -20 0 c-13 0
-20 -7 -20 -20 0 -13 -7 -20 -20 -20 -13 0 -20 -7 -20 -20 0 -13 7 -20 20 -20
13 0 20 7 20 20 0 13 7 20 20 20 13 0 20 7 20 20 0 13 7 20 20 20 l20 0 0 40
0 40 20 0 c13 0 20 7 20 20 0 13 -7 20 -20 20 -13 0 -20 -7 -20 -20z"/>
<path d="M24000 3800 l0 -40 20 0 c13 0 20 -7 20 -20 0 -13 7 -20 20 -20 l20
0 0 -40 0 -40 20 0 c13 0 20 -7 20 -20 l0 -20 40 0 40 0 0 -20 0 -20 60 0 60
0 0 20 0 20 -60 0 -60 0 0 20 0 20 -40 0 -40 0 0 40 0 40 -20 0 c-13 0 -20 7
-20 20 0 13 -7 20 -20 20 l-20 0 0 40 0 40 -20 0 -20 0 0 -40z"/>
<path d="M27720 3820 c0 -13 7 -20 20 -20 13 0 20 -7 20 -20 0 -13 7 -20 20
-20 13 0 20 -7 20 -20 l0 -20 40 0 40 0 0 -20 0 -20 60 0 60 0 0 -20 0 -20 40
0 40 0 0 -20 0 -20 60 0 60 0 0 -20 0 -20 40 0 40 0 0 -20 0 -20 60 0 60 0 0
-20 0 -20 40 0 40 0 0 -20 0 -20 40 0 40 0 0 20 0 20 -40 0 -40 0 0 20 0 20
-40 0 -40 0 0 20 0 20 -60 0 -60 0 0 20 0 20 -40 0 -40 0 0 20 0 20 -60 0 -60
0 0 20 0 20 -40 0 -40 0 0 20 0 20 -60 0 -60 0 0 20 0 20 -40 0 -40 0 0 20 c0
13 -7 20 -20 20 -13 0 -20 7 -20 20 0 13 -7 20 -20 20 -13 0 -20 -7 -20 -20z"/>
<path d="M31360 3820 l0 -20 -40 0 -40 0 0 -20 0 -20 40 0 40 0 0 20 c0 13 7
20 20 20 13 0 20 7 20 20 0 13 -7 20 -20 20 -13 0 -20 -7 -20 -20z"/>
<path d="M9920 3760 l0 -40 20 0 c13 0 20 -7 20 -20 0 -13 7 -20 20 -20 13 0
20 -7 20 -20 0 -13 7 -20 20 -20 13 0 20 -7 20 -20 0 -13 7 -20 20 -20 13 0
20 7 20 20 0 13 -7 20 -20 20 -13 0 -20 7 -20 20 0 13 -7 20 -20 20 -13 0 -20
7 -20 20 0 13 -7 20 -20 20 l-20 0 0 40 0 40 -20 0 -20 0 0 -40z"/>
<path d="M31880 3780 c0 -13 -7 -20 -20 -20 -13 0 -20 -7 -20 -20 0 -13 7 -20
20 -20 13 0 20 7 20 20 0 13 7 20 20 20 13 0 20 7 20 20 0 13 -7 20 -20 20
-13 0 -20 -7 -20 -20z"/>
<path d="M13840 3720 l0 -40 -20 0 c-13 0 -20 -7 -20 -20 l0 -20 -40 0 -40 0
0 -20 0 -20 -60 0 -60 0 0 -20 0 -20 -140 0 -140 0 0 -20 c0 -13 -7 -20 -20
-20 l-20 0 0 -60 0 -60 40 0 40 0 0 20 c0 13 -7 20 -20 20 l-20 0 0 40 0 40
140 0 140 0 0 20 0 20 60 0 60 0 0 20 0 20 40 0 40 0 0 20 c0 13 7 20 20 20
13 0 20 7 20 20 0 13 7 20 20 20 l20 0 0 40 0 40 -20 0 -20 0 0 -40z"/>
<path d="M29400 3700 l0 -20 60 0 60 0 0 20 0 20 -60 0 -60 0 0 -20z"/>
<path d="M31080 3700 l0 -20 40 0 40 0 0 20 0 20 -40 0 -40 0 0 -20z"/>
<path d="M31760 3700 c0 -13 -7 -20 -20 -20 -13 0 -20 -7 -20 -20 0 -13 -7
-20 -20 -20 -13 0 -20 -7 -20 -20 0 -13 -7 -20 -20 -20 -13 0 -20 -7 -20 -20
l0 -20 -40 0 -40 0 0 -20 0 -20 -40 0 -40 0 0 -20 0 -20 -60 0 -60 0 0 -20 0
-20 60 0 60 0 0 20 0 20 40 0 40 0 0 20 0 20 40 0 40 0 0 20 c0 13 7 20 20 20
13 0 20 7 20 20 0 13 7 20 20 20 13 0 20 7 20 20 0 13 7 20 20 20 13 0 20 7
20 20 0 13 7 20 20 20 13 0 20 7 20 20 0 13 -7 20 -20 20 -13 0 -20 -7 -20
-20z"/>
<path d="M29560 3660 l0 -20 40 0 40 0 0 20 0 20 -40 0 -40 0 0 -20z"/>
<path d="M30960 3660 l0 -20 40 0 40 0 0 20 0 20 -40 0 -40 0 0 -20z"/>
<path d="M9080 3620 l0 -20 -60 0 -60 0 0 -20 0 -20 60 0 60 0 0 20 0 20 40 0
40 0 0 20 0 20 -40 0 -40 0 0 -20z"/>
<path d="M29680 3620 l0 -20 60 0 60 0 0 20 0 20 -60 0 -60 0 0 -20z"/>
<path d="M30760 3620 l0 -20 -220 0 -220 0 0 -20 0 -20 220 0 220 0 0 20 0 20
80 0 80 0 0 20 0 20 -80 0 -80 0 0 -20z"/>
<path d="M520 3580 l0 -20 60 0 60 0 0 20 0 20 -60 0 -60 0 0 -20z"/>
<path d="M10120 3580 l0 -20 40 0 40 0 0 20 0 20 -40 0 -40 0 0 -20z"/>
<path d="M17520 3580 l0 -20 60 0 60 0 0 20 0 20 -60 0 -60 0 0 -20z"/>
<path d="M29840 3580 l0 -20 140 0 140 0 0 20 0 20 -140 0 -140 0 0 -20z"/>
<path d="M200 3480 l0 -80 20 0 20 0 0 60 0 60 120 0 120 0 0 20 0 20 -140 0
-140 0 0 -80z"/>
<path d="M2080 3540 l0 -20 140 0 140 0 0 -20 c0 -13 7 -20 20 -20 13 0 20 7
20 20 0 13 -7 20 -20 20 -13 0 -20 7 -20 20 l0 20 -140 0 -140 0 0 -20z"/>
<path d="M8720 3540 c0 -13 -7 -20 -20 -20 l-20 0 0 -60 0 -60 20 0 20 0 0 60
0 60 100 0 100 0 0 20 0 20 -100 0 -100 0 0 -20z"/>
<path d="M10240 3540 l0 -20 120 0 120 0 0 -60 0 -60 20 0 20 0 0 60 0 60 -20
0 c-13 0 -20 7 -20 20 l0 20 -120 0 -120 0 0 -20z"/>
<path d="M15880 3540 l0 -20 120 0 120 0 0 20 0 20 -120 0 -120 0 0 -20z"/>
<path d="M17240 3540 c0 -13 -7 -20 -20 -20 l-20 0 0 -60 0 -60 40 0 40 0 0
20 c0 13 -7 20 -20 20 l-20 0 0 40 0 40 120 0 120 0 0 20 0 20 -120 0 -120 0
0 -20z"/>
<path d="M19640 3540 l0 -20 140 0 140 0 0 -60 0 -60 20 0 20 0 0 60 0 60 -20
0 c-13 0 -20 7 -20 20 l0 20 -140 0 -140 0 0 -20z"/>
<path d="M21960 3540 c0 -13 -7 -20 -20 -20 l-20 0 0 -60 0 -60 40 0 40 0 0
20 c0 13 -7 20 -20 20 l-20 0 0 40 0 40 140 0 140 0 0 20 0 20 -140 0 -140 0
0 -20z"/>
<path d="M24360 3540 l0 -20 120 0 120 0 0 20 0 20 -120 0 -120 0 0 -20z"/>
<path d="M16160 3480 l0 -40 -20 0 c-13 0 -20 -7 -20 -20 l0 -20 40 0 40 0 0
60 0 60 -20 0 -20 0 0 -40z"/>
<path d="M28680 3380 l0 -20 40 0 40 0 0 20 0 20 -40 0 -40 0 0 -20z"/>
<path d="M31000 3380 l0 -20 100 0 100 0 0 20 0 20 -100 0 -100 0 0 -20z"/>
<path d="M28800 3340 l0 -20 60 0 60 0 0 20 0 20 -60 0 -60 0 0 -20z"/>
<path d="M30800 3340 l0 -20 80 0 80 0 0 20 0 20 -80 0 -80 0 0 -20z"/>
<path d="M29000 3300 l0 -20 440 0 440 0 0 20 0 20 -440 0 -440 0 0 -20z"/>
<path d="M30440 3300 l0 -20 160 0 160 0 0 20 0 20 -160 0 -160 0 0 -20z"/>
<path d="M30000 3260 l0 -20 180 0 180 0 0 20 0 20 -180 0 -180 0 0 -20z"/>
<path d="M6800 2020 l0 -20 -60 0 -60 0 0 -20 0 -20 -80 0 -80 0 0 -20 0 -20
-40 0 -40 0 0 -20 c0 -13 -7 -20 -20 -20 -13 0 -20 -7 -20 -20 0 -13 -7 -20
-20 -20 -13 0 -20 -7 -20 -20 l0 -20 -40 0 -40 0 0 -20 c0 -13 -7 -20 -20 -20
-13 0 -20 -7 -20 -20 0 -13 -7 -20 -20 -20 -13 0 -20 -7 -20 -20 0 -13 -7 -20
-20 -20 -13 0 -20 -7 -20 -20 0 -13 -7 -20 -20 -20 l-20 0 0 -40 0 -40 -20 0
-20 0 0 -40 0 -40 -20 0 -20 0 0 -60 0 -60 -20 0 -20 0 0 -240 0 -240 20 0 20
0 0 -40 0 -40 20 0 20 0 0 -60 0 -60 20 0 c13 0 20 -7 20 -20 0 -13 7 -20 20
-20 13 0 20 -7 20 -20 0 -13 7 -20 20 -20 l20 0 0 -40 0 -40 20 0 c13 0 20 -7
20 -20 0 -13 7 -20 20 -20 13 0 20 -7 20 -20 l0 -20 40 0 40 0 0 -20 c0 -13 7
-20 20 -20 13 0 20 -7 20 -20 0 -13 7 -20 20 -20 13 0 20 -7 20 -20 l0 -20 40
0 40 0 0 -20 0 -20 60 0 60 0 0 -20 0 -20 60 0 60 0 0 -20 0 -20 280 0 280 0
0 20 0 20 80 0 80 0 0 20 0 20 60 0 60 0 0 20 c0 13 7 20 20 20 13 0 20 7 20
20 l0 20 40 0 40 0 0 20 c0 13 7 20 20 20 13 0 20 7 20 20 0 13 7 20 20 20
l20 0 0 40 0 40 -20 0 -20 0 0 40 0 40 -20 0 c-13 0 -20 7 -20 20 l0 20 -60 0
-60 0 0 -20 c0 -13 -7 -20 -20 -20 -13 0 -20 -7 -20 -20 l0 -20 -40 0 -40 0 0
-20 c0 -13 -7 -20 -20 -20 -13 0 -20 -7 -20 -20 l0 -20 -60 0 -60 0 0 -20 0
-20 -240 0 -240 0 0 20 0 20 -60 0 -60 0 0 20 c0 13 -7 20 -20 20 -13 0 -20 7
-20 20 l0 20 -40 0 -40 0 0 20 c0 13 -7 20 -20 20 -13 0 -20 7 -20 20 0 13 -7
20 -20 20 -13 0 -20 7 -20 20 0 13 -7 20 -20 20 -13 0 -20 7 -20 20 0 13 -7
20 -20 20 l-20 0 0 40 0 40 -20 0 -20 0 0 40 0 40 -20 0 -20 0 0 60 0 60 -20
0 -20 0 0 60 0 60 20 0 20 0 0 140 0 140 20 0 20 0 0 40 0 40 20 0 20 0 0 40
0 40 20 0 c13 0 20 7 20 20 0 13 7 20 20 20 13 0 20 7 20 20 0 13 7 20 20 20
13 0 20 7 20 20 l0 20 40 0 40 0 0 20 c0 13 7 20 20 20 13 0 20 7 20 20 l0 20
80 0 80 0 0 20 0 20 240 0 240 0 0 -20 0 -20 60 0 60 0 0 -20 c0 -13 7 -20 20
-20 13 0 20 -7 20 -20 l0 -20 40 0 40 0 0 -20 c0 -13 7 -20 20 -20 13 0 20 -7
20 -20 l0 -20 60 0 60 0 0 20 c0 13 7 20 20 20 l20 0 0 40 0 40 20 0 20 0 0
40 0 40 -20 0 -20 0 0 40 0 40 -40 0 -40 0 0 20 c0 13 -7 20 -20 20 -13 0 -20
7 -20 20 l0 20 -60 0 -60 0 0 20 0 20 -60 0 -60 0 0 20 0 20 -300 0 -300 0 0
-20z"/>
<path d="M10560 2020 c0 -13 -7 -20 -20 -20 l-20 0 0 -40 0 -40 -20 0 -20 0 0
-40 0 -40 -20 0 -20 0 0 -40 0 -40 -20 0 -20 0 0 -60 0 -60 -20 0 -20 0 0 -40
0 -40 -20 0 -20 0 0 -40 0 -40 -20 0 -20 0 0 -40 0 -40 -20 0 -20 0 0 -60 0
-60 -20 0 -20 0 0 -40 0 -40 -20 0 -20 0 0 -40 0 -40 -20 0 -20 0 0 -40 0 -40
-20 0 -20 0 0 -40 0 -40 -20 0 -20 0 0 -40 0 -40 -20 0 -20 0 0 -60 0 -60 -20
0 -20 0 0 -40 0 -40 -20 0 -20 0 0 -40 0 -40 -20 0 -20 0 0 -40 0 -40 -20 0
-20 0 0 -40 0 -40 -20 0 -20 0 0 -60 0 -60 -20 0 -20 0 0 -40 0 -40 160 0 160
0 0 40 0 40 20 0 20 0 0 40 0 40 20 0 20 0 0 60 0 60 20 0 20 0 0 40 0 40 20
0 20 0 0 40 0 40 20 0 20 0 0 40 0 40 360 0 360 0 0 -20 c0 -13 7 -20 20 -20
l20 0 0 -40 0 -40 20 0 20 0 0 -40 0 -40 20 0 20 0 0 -40 0 -40 20 0 20 0 0
-60 0 -60 20 0 20 0 0 -40 0 -40 20 0 c13 0 20 -7 20 -20 l0 -20 160 0 160 0
0 20 c0 13 -7 20 -20 20 l-20 0 0 60 0 60 -20 0 -20 0 0 40 0 40 -20 0 -20 0
0 40 0 40 -20 0 -20 0 0 60 0 60 -20 0 -20 0 0 40 0 40 -20 0 -20 0 0 40 0 40
-20 0 -20 0 0 60 0 60 -20 0 -20 0 0 40 0 40 -20 0 -20 0 0 40 0 40 -20 0 -20
0 0 60 0 60 -20 0 -20 0 0 40 0 40 -20 0 -20 0 0 60 0 60 -20 0 c-13 0 -20 7
-20 20 0 13 -7 20 -20 20 l-20 0 0 60 0 60 -20 0 -20 0 0 40 0 40 -20 0 -20 0
0 60 0 60 -20 0 -20 0 0 40 0 40 -20 0 -20 0 0 60 0 60 -20 0 c-13 0 -20 7
-20 20 l0 20 -120 0 -120 0 0 -20z m160 -560 l0 -60 20 0 20 0 0 -40 0 -40 20
0 20 0 0 -60 0 -60 20 0 20 0 0 -60 0 -60 20 0 20 0 0 -60 0 -60 -220 0 -220
0 0 80 0 80 20 0 20 0 0 40 0 40 20 0 20 0 0 40 0 40 20 0 20 0 0 60 0 60 20
0 20 0 0 60 0 60 60 0 60 0 0 -60z"/>
<path d="M13640 1140 l0 -900 140 0 140 0 0 300 0 300 260 0 260 0 0 20 0 20
80 0 80 0 0 20 0 20 60 0 60 0 0 20 c0 13 7 20 20 20 13 0 20 7 20 20 0 13 7
20 20 20 13 0 20 7 20 20 0 13 7 20 20 20 13 0 20 7 20 20 0 13 7 20 20 20
l20 0 0 40 0 40 20 0 20 0 0 60 0 60 20 0 20 0 0 140 0 140 -20 0 -20 0 0 80
0 80 -20 0 -20 0 0 40 0 40 -20 0 c-13 0 -20 7 -20 20 0 13 -7 20 -20 20 -13
0 -20 7 -20 20 0 13 -7 20 -20 20 -13 0 -20 7 -20 20 0 13 -7 20 -20 20 -13 0
-20 7 -20 20 l0 20 -60 0 -60 0 0 20 0 20 -40 0 -40 0 0 20 0 20 -440 0 -440
0 0 -900z m800 640 l0 -20 40 0 40 0 0 -20 c0 -13 7 -20 20 -20 13 0 20 -7 20
-20 0 -13 7 -20 20 -20 13 0 20 -7 20 -20 0 -13 7 -20 20 -20 l20 0 0 -180 0
-180 -20 0 -20 0 0 -40 0 -40 -20 0 c-13 0 -20 -7 -20 -20 0 -13 -7 -20 -20
-20 -13 0 -20 -7 -20 -20 l0 -20 -40 0 -40 0 0 -20 0 -20 -260 0 -260 0 0 200
0 200 20 0 20 0 0 160 0 160 240 0 240 0 0 -20z"/>
<path d="M17080 1260 l0 -780 -20 0 -20 0 0 -100 0 -100 20 0 c13 0 20 -7 20
-20 l0 -20 140 0 140 0 0 900 0 900 -140 0 -140 0 0 -780z"/>
<path d="M19400 2020 c0 -13 -7 -20 -20 -20 l-20 0 0 -80 0 -80 20 0 c13 0 20
-7 20 -20 l0 -20 320 0 320 0 0 -780 0 -780 160 0 160 0 0 780 0 780 340 0
340 0 0 120 0 120 -820 0 -820 0 0 -20z"/>
<path d="M23360 2000 l0 -40 -20 0 -20 0 0 -60 0 -60 -20 0 -20 0 0 -40 0 -40
-20 0 -20 0 0 -40 0 -40 -20 0 -20 0 0 -40 0 -40 -20 0 -20 0 0 -60 0 -60 -20
0 -20 0 0 -40 0 -40 -20 0 -20 0 0 -40 0 -40 -20 0 -20 0 0 -40 0 -40 -20 0
-20 0 0 -60 0 -60 -20 0 -20 0 0 -40 0 -40 -20 0 -20 0 0 -40 0 -40 -20 0 -20
0 0 -40 0 -40 -20 0 -20 0 0 -60 0 -60 -20 0 c-13 0 -20 -7 -20 -20 0 -13 -7
-20 -20 -20 l-20 0 0 -60 0 -60 -20 0 -20 0 0 -40 0 -40 -20 0 -20 0 0 -60 0
-60 -20 0 -20 0 0 -40 0 -40 -20 0 -20 0 0 -40 0 -40 160 0 160 0 0 40 0 40
20 0 20 0 0 40 0 40 20 0 20 0 0 40 0 40 20 0 20 0 0 60 0 60 20 0 20 0 0 40
0 40 20 0 20 0 0 40 0 40 360 0 360 0 0 -20 c0 -13 7 -20 20 -20 l20 0 0 -40
0 -40 20 0 20 0 0 -60 0 -60 20 0 20 0 0 -40 0 -40 20 0 20 0 0 -60 0 -60 20
0 20 0 0 -40 0 -40 160 0 160 0 0 60 0 60 -20 0 -20 0 0 40 0 40 -20 0 -20 0
0 40 0 40 -20 0 -20 0 0 40 0 40 -20 0 -20 0 0 60 0 60 -20 0 -20 0 0 40 0 40
-20 0 -20 0 0 40 0 40 -20 0 -20 0 0 60 0 60 -20 0 -20 0 0 40 0 40 -20 0 -20
0 0 60 0 60 -20 0 -20 0 0 40 0 40 -20 0 -20 0 0 40 0 40 -20 0 -20 0 0 40 0
40 -20 0 -20 0 0 60 0 60 -20 0 -20 0 0 40 0 40 -20 0 -20 0 0 60 0 60 -20 0
-20 0 0 40 0 40 -20 0 -20 0 0 60 0 60 -20 0 -20 0 0 40 0 40 -140 0 -140 0 0
-40z m200 -620 l0 -60 20 0 20 0 0 -40 0 -40 20 0 20 0 0 -60 0 -60 20 0 20 0
0 -80 0 -80 -200 0 -200 0 0 80 0 80 20 0 20 0 0 40 0 40 20 0 20 0 0 60 0 60
20 0 20 0 0 40 0 40 20 0 c13 0 20 7 20 20 l0 20 60 0 60 0 0 -60z"/>
<path d="M26400 1140 l0 -900 40 0 40 0 0 -20 0 -20 480 0 480 0 0 20 c0 13 7
20 20 20 l20 0 0 100 0 100 -380 0 -380 0 0 20 c0 13 -7 20 -20 20 l-20 0 0
780 0 780 -140 0 -140 0 0 -900z"/>
</g>
</svg>
